<svg width="400" height="298" viewBox="0 0 400 298" fill="none" xmlns="http://www.w3.org/2000/svg">
<g clip-path="url(#clip0)">
<g filter="url(#filter0_d)">
<path d="M339 8.85484H49C35.1929 8.85484 24 21.0858 24 36.1734V200.085C24 215.172 35.1929 227.403 49 227.403H339C352.807 227.403 364 215.172 364 200.085V36.1734C364 21.0858 352.807 8.85484 339 8.85484Z" fill="white"/>
</g>
<path d="M24 36.1734C24 21.0858 35.1929 8.85484 49 8.85484H339C352.807 8.85484 364 21.0858 364 36.1734V61.3065H24V36.1734Z" fill="#30A0F5"/>
<g filter="url(#filter1_d)">
<path d="M243.8 162H153.2C136.521 162 123 171.749 123 183.774C123 195.8 136.521 205.548 153.2 205.548H243.8C260.479 205.548 274 195.8 274 183.774C274 171.749 260.479 162 243.8 162Z" fill="#30A0F5"/>
</g>
<path d="M141.08 24.0623V25.9103H134.84V30.8783H139.544V32.7023H134.84V39.7823H132.8V24.0623H141.08ZM145.865 27.7823C147.241 27.7823 148.241 28.0943 148.865 28.7183C149.505 29.3263 149.825 30.3023 149.825 31.6463V39.7823H147.881V37.9103C146.953 39.3503 145.905 40.0703 144.737 40.0703C143.809 40.0703 143.065 39.7503 142.505 39.1103C141.961 38.4703 141.689 37.5983 141.689 36.4943V35.8223C141.689 34.8623 142.017 34.0703 142.673 33.4463C143.329 32.8063 144.209 32.4863 145.313 32.4863C145.921 32.4863 146.745 32.5903 147.785 32.7983V31.4783C147.785 30.7903 147.625 30.2943 147.305 29.9903C147.001 29.6863 146.521 29.5343 145.865 29.5343C145.097 29.5343 144.017 29.6543 142.625 29.8943V28.1423C144.129 27.9023 145.209 27.7823 145.865 27.7823ZM145.817 34.0703C145.145 34.0703 144.633 34.2463 144.281 34.5983C143.929 34.9503 143.753 35.4463 143.753 36.0863V36.3503C143.753 36.9423 143.889 37.4063 144.161 37.7423C144.433 38.0783 144.777 38.2463 145.193 38.2463C145.625 38.2463 146.065 38.0623 146.513 37.6943C146.977 37.3103 147.401 36.7743 147.785 36.0863V34.2383C147.177 34.1263 146.521 34.0703 145.817 34.0703ZM157.175 27.7823C157.895 27.7823 158.711 27.8863 159.623 28.0943L159.575 29.8943C158.647 29.6863 157.847 29.5823 157.175 29.5823C156.423 29.5823 155.847 29.7903 155.447 30.2063C155.063 30.6223 154.871 31.2143 154.871 31.9823V35.8463C154.871 36.6463 155.071 37.2543 155.471 37.6703C155.887 38.0703 156.455 38.2703 157.175 38.2703C157.623 38.2703 158.015 38.2463 158.351 38.1983C158.687 38.1503 159.095 38.0703 159.575 37.9583L159.623 39.7583C158.647 39.9663 157.823 40.0703 157.151 40.0703C154.271 40.0703 152.831 38.6143 152.831 35.7023V32.1503C152.831 29.2383 154.279 27.7823 157.175 27.7823ZM165.057 28.0703H168.177V29.7503H165.057V36.6143C165.057 37.2223 165.177 37.6623 165.417 37.9343C165.673 38.1903 166.065 38.3183 166.593 38.3183C167.265 38.3183 167.921 38.2383 168.561 38.0783L168.609 39.7823C167.905 39.9743 167.265 40.0703 166.689 40.0703C165.409 40.0703 164.473 39.7903 163.881 39.2303C163.305 38.6543 163.017 37.7263 163.017 36.4463V29.7503H161.337V28.0703H163.017L163.401 24.9503H165.057V28.0703ZM179.062 27.7823C180.486 27.7823 181.542 28.1663 182.23 28.9343C182.934 29.6863 183.286 30.7583 183.286 32.1503V35.7023C183.286 37.0943 182.934 38.1743 182.23 38.9423C181.542 39.6943 180.486 40.0703 179.062 40.0703C177.638 40.0703 176.574 39.6943 175.87 38.9423C175.182 38.1743 174.838 37.0943 174.838 35.7023V32.1503C174.838 30.7583 175.182 29.6863 175.87 28.9343C176.574 28.1663 177.638 27.7823 179.062 27.7823ZM179.062 29.4863C178.374 29.4863 177.838 29.7023 177.454 30.1343C177.07 30.5663 176.878 31.1823 176.878 31.9823V35.8703C176.878 36.6703 177.07 37.2863 177.454 37.7183C177.838 38.1503 178.374 38.3663 179.062 38.3663C179.75 38.3663 180.286 38.1503 180.67 37.7183C181.054 37.2863 181.246 36.6703 181.246 35.8703V31.9583C181.246 31.1583 181.054 30.5503 180.67 30.1343C180.286 29.7023 179.75 29.4863 179.062 29.4863ZM190.719 23.1023C191.247 23.1023 191.751 23.1583 192.231 23.2703V24.9023C191.751 24.8223 191.255 24.7823 190.743 24.7823C190.247 24.7823 189.855 24.9423 189.567 25.2623C189.295 25.5823 189.159 26.0703 189.159 26.7263V28.0703H191.559V29.7503H189.159V39.7823H187.119V29.7503H185.439V28.0703H187.119V26.8463C187.135 25.5983 187.447 24.6623 188.055 24.0383C188.663 23.4143 189.551 23.1023 190.719 23.1023ZM200.494 28.0703H203.614V29.7503H200.494V36.6143C200.494 37.2223 200.614 37.6623 200.854 37.9343C201.11 38.1903 201.502 38.3183 202.03 38.3183C202.702 38.3183 203.358 38.2383 203.998 38.0783L204.046 39.7823C203.342 39.9743 202.702 40.0703 202.126 40.0703C200.846 40.0703 199.91 39.7903 199.318 39.2303C198.742 38.6543 198.454 37.7263 198.454 36.4463V29.7503H196.774V28.0703H198.454L198.838 24.9503H200.494V28.0703ZM208.243 29.6303C209.123 28.3983 210.147 27.7823 211.315 27.7823C212.339 27.7823 213.123 28.1343 213.667 28.8383C214.227 29.5263 214.507 30.5103 214.507 31.7903V39.7823H212.467V32.0783C212.467 30.4783 211.947 29.6783 210.907 29.6783C210.443 29.6783 209.971 29.8543 209.491 30.2063C209.011 30.5583 208.595 31.0383 208.243 31.6463V39.7823H206.203V23.3903H208.243V29.6303ZM221.598 27.7823C222.942 27.7823 223.966 28.1503 224.67 28.8863C225.374 29.6223 225.726 30.6863 225.726 32.0783V34.5503H219.558V35.9663C219.558 36.7823 219.75 37.3743 220.134 37.7423C220.534 38.0943 221.158 38.2703 222.006 38.2703C222.838 38.2703 223.878 38.1423 225.126 37.8863L225.174 39.6623C223.686 39.9343 222.622 40.0703 221.982 40.0703C220.398 40.0703 219.254 39.7263 218.55 39.0383C217.862 38.3503 217.518 37.2863 217.518 35.8463V32.0783C217.518 30.6863 217.854 29.6223 218.526 28.8863C219.214 28.1503 220.238 27.7823 221.598 27.7823ZM221.598 29.4863C220.974 29.4863 220.478 29.6863 220.11 30.0863C219.742 30.4703 219.558 31.0303 219.558 31.7663V32.9183H223.686V31.8383C223.686 31.0703 223.494 30.4863 223.11 30.0863C222.742 29.6863 222.238 29.4863 221.598 29.4863ZM237.317 23.7743C239.221 23.7743 240.685 24.3183 241.709 25.4063C242.749 26.4783 243.269 28.0303 243.269 30.0623V33.9983C243.269 35.9503 242.749 37.4543 241.709 38.5103C240.685 39.5503 239.181 40.0703 237.197 40.0703C235.837 40.0703 234.413 40.0223 232.925 39.9263V23.8703C234.365 23.8063 235.829 23.7743 237.317 23.7743ZM237.197 25.5023C236.701 25.5023 235.957 25.5183 234.965 25.5503V38.1743C235.909 38.2703 236.653 38.3183 237.197 38.3183C238.429 38.3183 239.405 37.9663 240.125 37.2623C240.861 36.5423 241.229 35.5103 241.229 34.1663V29.9183C241.229 28.4623 240.877 27.3663 240.173 26.6303C239.469 25.8783 238.477 25.5023 237.197 25.5023ZM250.092 27.7823C251.468 27.7823 252.468 28.0943 253.092 28.7183C253.732 29.3263 254.052 30.3023 254.052 31.6463V39.7823H252.108V37.9103C251.18 39.3503 250.132 40.0703 248.964 40.0703C248.036 40.0703 247.292 39.7503 246.732 39.1103C246.188 38.4703 245.916 37.5983 245.916 36.4943V35.8223C245.916 34.8623 246.244 34.0703 246.9 33.4463C247.556 32.8063 248.436 32.4863 249.54 32.4863C250.148 32.4863 250.972 32.5903 252.012 32.7983V31.4783C252.012 30.7903 251.852 30.2943 251.532 29.9903C251.228 29.6863 250.748 29.5343 250.092 29.5343C249.324 29.5343 248.244 29.6543 246.852 29.8943V28.1423C248.356 27.9023 249.436 27.7823 250.092 27.7823ZM250.044 34.0703C249.372 34.0703 248.86 34.2463 248.508 34.5983C248.156 34.9503 247.98 35.4463 247.98 36.0863V36.3503C247.98 36.9423 248.116 37.4063 248.388 37.7423C248.66 38.0783 249.004 38.2463 249.42 38.2463C249.852 38.2463 250.292 38.0623 250.74 37.6943C251.204 37.3103 251.628 36.7743 252.012 36.0863V34.2383C251.404 34.1263 250.748 34.0703 250.044 34.0703ZM265.841 28.0703L260.465 44.2223H258.425L259.961 39.7823H259.193L255.857 28.0703H258.089L260.609 38.3183L263.729 28.0703H265.841Z" fill="white"/>
<path d="M141.08 24.0623V25.9103H134.84V30.8783H139.544V32.7023H134.84V39.7823H132.8V24.0623H141.08ZM145.865 27.7823C147.241 27.7823 148.241 28.0943 148.865 28.7183C149.505 29.3263 149.825 30.3023 149.825 31.6463V39.7823H147.881V37.9103C146.953 39.3503 145.905 40.0703 144.737 40.0703C143.809 40.0703 143.065 39.7503 142.505 39.1103C141.961 38.4703 141.689 37.5983 141.689 36.4943V35.8223C141.689 34.8623 142.017 34.0703 142.673 33.4463C143.329 32.8063 144.209 32.4863 145.313 32.4863C145.921 32.4863 146.745 32.5903 147.785 32.7983V31.4783C147.785 30.7903 147.625 30.2943 147.305 29.9903C147.001 29.6863 146.521 29.5343 145.865 29.5343C145.097 29.5343 144.017 29.6543 142.625 29.8943V28.1423C144.129 27.9023 145.209 27.7823 145.865 27.7823ZM145.817 34.0703C145.145 34.0703 144.633 34.2463 144.281 34.5983C143.929 34.9503 143.753 35.4463 143.753 36.0863V36.3503C143.753 36.9423 143.889 37.4063 144.161 37.7423C144.433 38.0783 144.777 38.2463 145.193 38.2463C145.625 38.2463 146.065 38.0623 146.513 37.6943C146.977 37.3103 147.401 36.7743 147.785 36.0863V34.2383C147.177 34.1263 146.521 34.0703 145.817 34.0703ZM157.175 27.7823C157.895 27.7823 158.711 27.8863 159.623 28.0943L159.575 29.8943C158.647 29.6863 157.847 29.5823 157.175 29.5823C156.423 29.5823 155.847 29.7903 155.447 30.2063C155.063 30.6223 154.871 31.2143 154.871 31.9823V35.8463C154.871 36.6463 155.071 37.2543 155.471 37.6703C155.887 38.0703 156.455 38.2703 157.175 38.2703C157.623 38.2703 158.015 38.2463 158.351 38.1983C158.687 38.1503 159.095 38.0703 159.575 37.9583L159.623 39.7583C158.647 39.9663 157.823 40.0703 157.151 40.0703C154.271 40.0703 152.831 38.6143 152.831 35.7023V32.1503C152.831 29.2383 154.279 27.7823 157.175 27.7823ZM165.057 28.0703H168.177V29.7503H165.057V36.6143C165.057 37.2223 165.177 37.6623 165.417 37.9343C165.673 38.1903 166.065 38.3183 166.593 38.3183C167.265 38.3183 167.921 38.2383 168.561 38.0783L168.609 39.7823C167.905 39.9743 167.265 40.0703 166.689 40.0703C165.409 40.0703 164.473 39.7903 163.881 39.2303C163.305 38.6543 163.017 37.7263 163.017 36.4463V29.7503H161.337V28.0703H163.017L163.401 24.9503H165.057V28.0703ZM179.062 27.7823C180.486 27.7823 181.542 28.1663 182.23 28.9343C182.934 29.6863 183.286 30.7583 183.286 32.1503V35.7023C183.286 37.0943 182.934 38.1743 182.23 38.9423C181.542 39.6943 180.486 40.0703 179.062 40.0703C177.638 40.0703 176.574 39.6943 175.87 38.9423C175.182 38.1743 174.838 37.0943 174.838 35.7023V32.1503C174.838 30.7583 175.182 29.6863 175.87 28.9343C176.574 28.1663 177.638 27.7823 179.062 27.7823ZM179.062 29.4863C178.374 29.4863 177.838 29.7023 177.454 30.1343C177.07 30.5663 176.878 31.1823 176.878 31.9823V35.8703C176.878 36.6703 177.07 37.2863 177.454 37.7183C177.838 38.1503 178.374 38.3663 179.062 38.3663C179.75 38.3663 180.286 38.1503 180.67 37.7183C181.054 37.2863 181.246 36.6703 181.246 35.8703V31.9583C181.246 31.1583 181.054 30.5503 180.67 30.1343C180.286 29.7023 179.75 29.4863 179.062 29.4863ZM190.719 23.1023C191.247 23.1023 191.751 23.1583 192.231 23.2703V24.9023C191.751 24.8223 191.255 24.7823 190.743 24.7823C190.247 24.7823 189.855 24.9423 189.567 25.2623C189.295 25.5823 189.159 26.0703 189.159 26.7263V28.0703H191.559V29.7503H189.159V39.7823H187.119V29.7503H185.439V28.0703H187.119V26.8463C187.135 25.5983 187.447 24.6623 188.055 24.0383C188.663 23.4143 189.551 23.1023 190.719 23.1023ZM200.494 28.0703H203.614V29.7503H200.494V36.6143C200.494 37.2223 200.614 37.6623 200.854 37.9343C201.11 38.1903 201.502 38.3183 202.03 38.3183C202.702 38.3183 203.358 38.2383 203.998 38.0783L204.046 39.7823C203.342 39.9743 202.702 40.0703 202.126 40.0703C200.846 40.0703 199.91 39.7903 199.318 39.2303C198.742 38.6543 198.454 37.7263 198.454 36.4463V29.7503H196.774V28.0703H198.454L198.838 24.9503H200.494V28.0703ZM208.243 29.6303C209.123 28.3983 210.147 27.7823 211.315 27.7823C212.339 27.7823 213.123 28.1343 213.667 28.8383C214.227 29.5263 214.507 30.5103 214.507 31.7903V39.7823H212.467V32.0783C212.467 30.4783 211.947 29.6783 210.907 29.6783C210.443 29.6783 209.971 29.8543 209.491 30.2063C209.011 30.5583 208.595 31.0383 208.243 31.6463V39.7823H206.203V23.3903H208.243V29.6303ZM221.598 27.7823C222.942 27.7823 223.966 28.1503 224.67 28.8863C225.374 29.6223 225.726 30.6863 225.726 32.0783V34.5503H219.558V35.9663C219.558 36.7823 219.75 37.3743 220.134 37.7423C220.534 38.0943 221.158 38.2703 222.006 38.2703C222.838 38.2703 223.878 38.1423 225.126 37.8863L225.174 39.6623C223.686 39.9343 222.622 40.0703 221.982 40.0703C220.398 40.0703 219.254 39.7263 218.55 39.0383C217.862 38.3503 217.518 37.2863 217.518 35.8463V32.0783C217.518 30.6863 217.854 29.6223 218.526 28.8863C219.214 28.1503 220.238 27.7823 221.598 27.7823ZM221.598 29.4863C220.974 29.4863 220.478 29.6863 220.11 30.0863C219.742 30.4703 219.558 31.0303 219.558 31.7663V32.9183H223.686V31.8383C223.686 31.0703 223.494 30.4863 223.11 30.0863C222.742 29.6863 222.238 29.4863 221.598 29.4863ZM237.317 23.7743C239.221 23.7743 240.685 24.3183 241.709 25.4063C242.749 26.4783 243.269 28.0303 243.269 30.0623V33.9983C243.269 35.9503 242.749 37.4543 241.709 38.5103C240.685 39.5503 239.181 40.0703 237.197 40.0703C235.837 40.0703 234.413 40.0223 232.925 39.9263V23.8703C234.365 23.8063 235.829 23.7743 237.317 23.7743ZM237.197 25.5023C236.701 25.5023 235.957 25.5183 234.965 25.5503V38.1743C235.909 38.2703 236.653 38.3183 237.197 38.3183C238.429 38.3183 239.405 37.9663 240.125 37.2623C240.861 36.5423 241.229 35.5103 241.229 34.1663V29.9183C241.229 28.4623 240.877 27.3663 240.173 26.6303C239.469 25.8783 238.477 25.5023 237.197 25.5023ZM250.092 27.7823C251.468 27.7823 252.468 28.0943 253.092 28.7183C253.732 29.3263 254.052 30.3023 254.052 31.6463V39.7823H252.108V37.9103C251.18 39.3503 250.132 40.0703 248.964 40.0703C248.036 40.0703 247.292 39.7503 246.732 39.1103C246.188 38.4703 245.916 37.5983 245.916 36.4943V35.8223C245.916 34.8623 246.244 34.0703 246.9 33.4463C247.556 32.8063 248.436 32.4863 249.54 32.4863C250.148 32.4863 250.972 32.5903 252.012 32.7983V31.4783C252.012 30.7903 251.852 30.2943 251.532 29.9903C251.228 29.6863 250.748 29.5343 250.092 29.5343C249.324 29.5343 248.244 29.6543 246.852 29.8943V28.1423C248.356 27.9023 249.436 27.7823 250.092 27.7823ZM250.044 34.0703C249.372 34.0703 248.86 34.2463 248.508 34.5983C248.156 34.9503 247.98 35.4463 247.98 36.0863V36.3503C247.98 36.9423 248.116 37.4063 248.388 37.7423C248.66 38.0783 249.004 38.2463 249.42 38.2463C249.852 38.2463 250.292 38.0623 250.74 37.6943C251.204 37.3103 251.628 36.7743 252.012 36.0863V34.2383C251.404 34.1263 250.748 34.0703 250.044 34.0703ZM265.841 28.0703L260.465 44.2223H258.425L259.961 39.7823H259.193L255.857 28.0703H258.089L260.609 38.3183L263.729 28.0703H265.841Z" fill="url(#paint0_linear)"/>
<path d="M100.735 82.5451C101.099 82.5451 101.491 82.5824 101.911 82.6571C102.341 82.7224 102.593 82.7597 102.667 82.7691L102.639 83.8191C101.818 83.6697 101.183 83.5951 100.735 83.5951C100.101 83.5951 99.6434 83.7257 99.3634 83.9871C99.0834 84.2484 98.9434 84.6824 98.9434 85.2891V89.2931C98.9434 89.8997 99.0788 90.3337 99.3494 90.5951C99.6294 90.8471 100.091 90.9731 100.735 90.9731C101.183 90.9731 101.818 90.8984 102.639 90.7491L102.667 91.8271C102.593 91.8364 102.341 91.8737 101.911 91.9391C101.491 92.0137 101.099 92.0511 100.735 92.0511C99.6621 92.0511 98.8968 91.8224 98.4394 91.3651C97.9821 90.9077 97.7534 90.1937 97.7534 89.2231V85.3731C97.7534 84.4024 97.9821 83.6884 98.4394 83.2311C98.8968 82.7737 99.6621 82.5451 100.735 82.5451ZM106.599 84.8831C107.43 84.8831 108.046 85.1071 108.447 85.5551C108.858 85.9937 109.063 86.6191 109.063 87.4311V89.5031C109.063 90.3151 108.858 90.9451 108.447 91.3931C108.046 91.8317 107.43 92.0511 106.599 92.0511C105.768 92.0511 105.148 91.8317 104.737 91.3931C104.336 90.9451 104.135 90.3151 104.135 89.5031V87.4311C104.135 86.6191 104.336 85.9937 104.737 85.5551C105.148 85.1071 105.768 84.8831 106.599 84.8831ZM106.599 85.8771C106.198 85.8771 105.885 86.0031 105.661 86.2551C105.437 86.5071 105.325 86.8664 105.325 87.3331V89.6011C105.325 90.0677 105.437 90.4271 105.661 90.6791C105.885 90.9311 106.198 91.0571 106.599 91.0571C107 91.0571 107.313 90.9311 107.537 90.6791C107.761 90.4271 107.873 90.0677 107.873 89.6011V87.3191C107.873 86.8524 107.761 86.4977 107.537 86.2551C107.313 86.0031 107 85.8771 106.599 85.8771ZM115.638 91.8831H114.518V90.9031C114.266 91.2764 113.986 91.5611 113.678 91.7571C113.37 91.9531 113.044 92.0511 112.698 92.0511C112.129 92.0511 111.681 91.8551 111.354 91.4631C111.037 91.0617 110.878 90.4784 110.878 89.7131V85.0511H112.068V89.5031C112.068 89.9977 112.143 90.3617 112.292 90.5951C112.451 90.8284 112.666 90.9451 112.936 90.9451C113.188 90.9451 113.45 90.8471 113.72 90.6511C114 90.4457 114.243 90.1657 114.448 89.8111V85.0511H115.638V91.8831ZM120.587 84.8831C121.184 84.8831 121.642 85.0884 121.959 85.4991C122.286 85.9004 122.449 86.4744 122.449 87.2211V91.8831H121.259V87.3891C121.259 86.4557 120.956 85.9891 120.349 85.9891C120.078 85.9891 119.803 86.0917 119.523 86.2971C119.243 86.5024 119 86.7824 118.795 87.1371V91.8831H117.605V85.0511H118.725V86.0731C118.977 85.6904 119.257 85.3964 119.565 85.1911C119.882 84.9857 120.223 84.8831 120.587 84.8831ZM125.814 85.0511H127.634V86.0311H125.814V90.0351C125.814 90.3897 125.884 90.6464 126.024 90.8051C126.173 90.9544 126.402 91.0291 126.71 91.0291C127.102 91.0291 127.484 90.9824 127.858 90.8891L127.886 91.8831C127.475 91.9951 127.102 92.0511 126.766 92.0511C126.019 92.0511 125.473 91.8877 125.128 91.5611C124.792 91.2251 124.624 90.6837 124.624 89.9371V86.0311H123.644V85.0511H124.624L124.848 83.2311H125.814V85.0511ZM133.06 85.0511H134.88V86.0311H133.06V90.0351C133.06 90.3897 133.13 90.6464 133.27 90.8051C133.419 90.9544 133.648 91.0291 133.956 91.0291C134.348 91.0291 134.73 90.9824 135.104 90.8891L135.132 91.8831C134.721 91.9951 134.348 92.0511 134.012 92.0511C133.265 92.0511 132.719 91.8877 132.374 91.5611C132.038 91.2251 131.87 90.6837 131.87 89.9371V86.0311H130.89V85.0511H131.87L132.094 83.2311H133.06V85.0511ZM137.58 85.9611C138.093 85.2424 138.691 84.8831 139.372 84.8831C139.969 84.8831 140.427 85.0884 140.744 85.4991C141.071 85.9004 141.234 86.4744 141.234 87.2211V91.8831H140.044V87.3891C140.044 86.4557 139.741 85.9891 139.134 85.9891C138.863 85.9891 138.588 86.0917 138.308 86.2971C138.028 86.5024 137.785 86.7824 137.58 87.1371V91.8831H136.39V82.3211H137.58V85.9611ZM145.37 84.8831C146.154 84.8831 146.752 85.0977 147.162 85.5271C147.573 85.9564 147.778 86.5771 147.778 87.3891V88.8311H144.18V89.6571C144.18 90.1331 144.292 90.4784 144.516 90.6931C144.75 90.8984 145.114 91.0011 145.608 91.0011C146.094 91.0011 146.7 90.9264 147.428 90.7771L147.456 91.8131C146.588 91.9717 145.968 92.0511 145.594 92.0511C144.67 92.0511 144.003 91.8504 143.592 91.4491C143.191 91.0477 142.99 90.4271 142.99 89.5871V87.3891C142.99 86.5771 143.186 85.9564 143.578 85.5271C143.98 85.0977 144.577 84.8831 145.37 84.8831ZM145.37 85.8771C145.006 85.8771 144.717 85.9937 144.502 86.2271C144.288 86.4511 144.18 86.7777 144.18 87.2071V87.8791H146.588V87.2491C146.588 86.8011 146.476 86.4604 146.252 86.2271C146.038 85.9937 145.744 85.8771 145.37 85.8771ZM154.89 84.8831C155.487 84.8831 155.944 85.0884 156.262 85.4991C156.588 85.9004 156.752 86.4744 156.752 87.2211V91.8831H155.562V87.3891C155.562 86.4557 155.258 85.9891 154.652 85.9891C154.381 85.9891 154.106 86.0917 153.826 86.2971C153.546 86.5024 153.303 86.7824 153.098 87.1371V91.8831H151.908V85.0511H153.028V86.0731C153.28 85.6904 153.56 85.3964 153.868 85.1911C154.185 84.9857 154.526 84.8831 154.89 84.8831ZM163.476 91.8831H162.356V90.9031C162.104 91.2764 161.824 91.5611 161.516 91.7571C161.208 91.9531 160.882 92.0511 160.536 92.0511C159.967 92.0511 159.519 91.8551 159.192 91.4631C158.875 91.0617 158.716 90.4784 158.716 89.7131V85.0511H159.906V89.5031C159.906 89.9977 159.981 90.3617 160.13 90.5951C160.289 90.8284 160.504 90.9451 160.774 90.9451C161.026 90.9451 161.288 90.8471 161.558 90.6511C161.838 90.4457 162.081 90.1657 162.286 89.8111V85.0511H163.476V91.8831ZM172.009 84.8831C172.606 84.8831 173.064 85.0884 173.381 85.4991C173.698 85.9004 173.857 86.4744 173.857 87.2211V91.8831H172.667V87.3891C172.667 86.4557 172.368 85.9891 171.771 85.9891C171.51 85.9891 171.239 86.0917 170.959 86.2971C170.688 86.5024 170.45 86.7824 170.245 87.1371V91.8831H169.055V87.3891C169.055 86.4557 168.756 85.9891 168.159 85.9891C167.898 85.9891 167.627 86.0917 167.347 86.2971C167.076 86.5024 166.838 86.7824 166.633 87.1371V91.8831H165.443V85.0511H166.563V86.0731C166.806 85.6904 167.086 85.3964 167.403 85.1911C167.72 84.9857 168.052 84.8831 168.397 84.8831C168.826 84.8831 169.186 84.9951 169.475 85.2191C169.764 85.4337 169.974 85.7511 170.105 86.1711C170.357 85.7511 170.646 85.4337 170.973 85.2191C171.3 84.9951 171.645 84.8831 172.009 84.8831ZM176.94 85.9611C177.183 85.6157 177.463 85.3497 177.78 85.1631C178.097 84.9764 178.429 84.8831 178.774 84.8831C179.353 84.8831 179.801 85.0884 180.118 85.4991C180.435 85.9004 180.594 86.4884 180.594 87.2631V89.4751C180.594 90.3244 180.393 90.9684 179.992 91.4071C179.591 91.8364 178.97 92.0511 178.13 92.0511C177.309 92.0511 176.707 91.8411 176.324 91.4211C175.941 91.0011 175.75 90.3617 175.75 89.5031V82.3211H176.94V85.9611ZM178.494 85.9471C178.223 85.9471 177.948 86.0497 177.668 86.2551C177.388 86.4604 177.145 86.7404 176.94 87.0951V89.6431C176.94 90.1004 177.043 90.4504 177.248 90.6931C177.463 90.9357 177.757 91.0571 178.13 91.0571C178.979 91.0571 179.404 90.5764 179.404 89.6151V87.4311C179.404 86.4417 179.101 85.9471 178.494 85.9471ZM184.65 84.8831C185.434 84.8831 186.031 85.0977 186.442 85.5271C186.852 85.9564 187.058 86.5771 187.058 87.3891V88.8311H183.46V89.6571C183.46 90.1331 183.572 90.4784 183.796 90.6931C184.029 90.8984 184.393 91.0011 184.888 91.0011C185.373 91.0011 185.98 90.9264 186.708 90.7771L186.736 91.8131C185.868 91.9717 185.247 92.0511 184.874 92.0511C183.95 92.0511 183.282 91.8504 182.872 91.4491C182.47 91.0477 182.27 90.4271 182.27 89.5871V87.3891C182.27 86.5771 182.466 85.9564 182.858 85.5271C183.259 85.0977 183.856 84.8831 184.65 84.8831ZM184.65 85.8771C184.286 85.8771 183.996 85.9937 183.782 86.2271C183.567 86.4511 183.46 86.7777 183.46 87.2071V87.8791H185.868V87.2491C185.868 86.8011 185.756 86.4604 185.532 86.2271C185.317 85.9937 185.023 85.8771 184.65 85.8771ZM191.653 84.8831C191.784 84.8831 191.887 84.8924 191.961 84.9111V86.2551C191.821 86.2271 191.639 86.2131 191.415 86.2131C190.762 86.2131 190.244 86.5397 189.861 87.1931V91.8831H188.671V85.0511H189.791V86.0731C190.043 85.6904 190.323 85.3964 190.631 85.1911C190.949 84.9857 191.289 84.8831 191.653 84.8831ZM198.064 84.8831C198.894 84.8831 199.51 85.1071 199.912 85.5551C200.322 85.9937 200.528 86.6191 200.528 87.4311V89.5031C200.528 90.3151 200.322 90.9451 199.912 91.3931C199.51 91.8317 198.894 92.0511 198.064 92.0511C197.233 92.0511 196.612 91.8317 196.202 91.3931C195.8 90.9451 195.6 90.3151 195.6 89.5031V87.4311C195.6 86.6191 195.8 85.9937 196.202 85.5551C196.612 85.1071 197.233 84.8831 198.064 84.8831ZM198.064 85.8771C197.662 85.8771 197.35 86.0031 197.126 86.2551C196.902 86.5071 196.79 86.8664 196.79 87.3331V89.6011C196.79 90.0677 196.902 90.4271 197.126 90.6791C197.35 90.9311 197.662 91.0571 198.064 91.0571C198.465 91.0571 198.778 90.9311 199.002 90.6791C199.226 90.4271 199.338 90.0677 199.338 89.6011V87.3191C199.338 86.8524 199.226 86.4977 199.002 86.2551C198.778 86.0031 198.465 85.8771 198.064 85.8771ZM204.863 82.1531C205.171 82.1531 205.465 82.1857 205.745 82.2511V83.2031C205.465 83.1564 205.176 83.1331 204.877 83.1331C204.588 83.1331 204.359 83.2264 204.191 83.4131C204.033 83.5997 203.953 83.8844 203.953 84.2671V85.0511H205.353V86.0311H203.953V91.8831H202.763V86.0311H201.783V85.0511H202.763V84.3371C202.773 83.6091 202.955 83.0631 203.309 82.6991C203.664 82.3351 204.182 82.1531 204.863 82.1531ZM211.56 84.8831C211.98 84.8831 212.456 84.9437 212.988 85.0651L212.96 86.1151C212.418 85.9937 211.952 85.9331 211.56 85.9331C211.121 85.9331 210.785 86.0544 210.552 86.2971C210.328 86.5397 210.216 86.8851 210.216 87.3331V89.5871C210.216 90.0537 210.332 90.4084 210.566 90.6511C210.808 90.8844 211.14 91.0011 211.56 91.0011C211.821 91.0011 212.05 90.9871 212.246 90.9591C212.442 90.9311 212.68 90.8844 212.96 90.8191L212.988 91.8691C212.418 91.9904 211.938 92.0511 211.546 92.0511C209.866 92.0511 209.026 91.2017 209.026 89.5031V87.4311C209.026 85.7324 209.87 84.8831 211.56 84.8831ZM217.603 84.8831C217.733 84.8831 217.836 84.8924 217.911 84.9111V86.2551C217.771 86.2271 217.589 86.2131 217.365 86.2131C216.711 86.2131 216.193 86.5397 215.811 87.1931V91.8831H214.621V85.0511H215.741V86.0731C215.993 85.6904 216.273 85.3964 216.581 85.1911C216.898 84.9857 217.239 84.8831 217.603 84.8831ZM220.363 85.0511V91.8831H219.173V85.0511H220.363ZM219.761 82.2931C220.013 82.2931 220.205 82.3491 220.335 82.4611C220.475 82.5731 220.545 82.7317 220.545 82.9371V83.3431C220.545 83.5484 220.475 83.7071 220.335 83.8191C220.205 83.9217 220.013 83.9731 219.761 83.9731C219.519 83.9731 219.327 83.9217 219.187 83.8191C219.057 83.7071 218.991 83.5484 218.991 83.3431V82.9371C218.991 82.7317 219.057 82.5731 219.187 82.4611C219.327 82.3491 219.519 82.2931 219.761 82.2931ZM224.712 84.8831C225.132 84.8831 225.608 84.9437 226.14 85.0651L226.112 86.1151C225.571 85.9937 225.104 85.9331 224.712 85.9331C224.273 85.9331 223.937 86.0544 223.704 86.2971C223.48 86.5397 223.368 86.8851 223.368 87.3331V89.5871C223.368 90.0537 223.485 90.4084 223.718 90.6511C223.961 90.8844 224.292 91.0011 224.712 91.0011C224.973 91.0011 225.202 90.9871 225.398 90.9591C225.594 90.9311 225.832 90.8844 226.112 90.8191L226.14 91.8691C225.571 91.9904 225.09 92.0511 224.698 92.0511C223.018 92.0511 222.178 91.2017 222.178 89.5031V87.4311C222.178 85.7324 223.023 84.8831 224.712 84.8831ZM228.963 82.3211V88.0471L231.203 85.0511H232.533L230.209 88.0471L232.701 91.8831H231.273L228.963 88.2151V91.8831H227.773V82.3211H228.963ZM235.783 84.8831C236.567 84.8831 237.164 85.0977 237.575 85.5271C237.985 85.9564 238.191 86.5771 238.191 87.3891V88.8311H234.593V89.6571C234.593 90.1331 234.705 90.4784 234.929 90.6931C235.162 90.8984 235.526 91.0011 236.021 91.0011C236.506 91.0011 237.113 90.9264 237.841 90.7771L237.869 91.8131C237.001 91.9717 236.38 92.0511 236.007 92.0511C235.083 92.0511 234.415 91.8504 234.005 91.4491C233.603 91.0477 233.403 90.4271 233.403 89.5871V87.3891C233.403 86.5771 233.599 85.9564 233.991 85.5271C234.392 85.0977 234.989 84.8831 235.783 84.8831ZM235.783 85.8771C235.419 85.8771 235.129 85.9937 234.915 86.2271C234.7 86.4511 234.593 86.7777 234.593 87.2071V87.8791H237.001V87.2491C237.001 86.8011 236.889 86.4604 236.665 86.2271C236.45 85.9937 236.156 85.8771 235.783 85.8771ZM241.204 85.0511H243.024V86.0311H241.204V90.0351C241.204 90.3897 241.274 90.6464 241.414 90.8051C241.564 90.9544 241.792 91.0291 242.1 91.0291C242.492 91.0291 242.875 90.9824 243.248 90.8891L243.276 91.8831C242.866 91.9951 242.492 92.0511 242.156 92.0511C241.41 92.0511 240.864 91.8877 240.518 91.5611C240.182 91.2251 240.014 90.6837 240.014 89.9371V86.0311H239.034V85.0511H240.014L240.238 83.2311H241.204V85.0511ZM249.444 84.8831C249.864 84.8831 250.34 84.9437 250.872 85.0651L250.844 86.1151C250.303 85.9937 249.836 85.9331 249.444 85.9331C249.006 85.9331 248.67 86.0544 248.436 86.2971C248.212 86.5397 248.1 86.8851 248.1 87.3331V89.5871C248.1 90.0537 248.217 90.4084 248.45 90.6511C248.693 90.8844 249.024 91.0011 249.444 91.0011C249.706 91.0011 249.934 90.9871 250.13 90.9591C250.326 90.9311 250.564 90.8844 250.844 90.8191L250.872 91.8691C250.303 91.9904 249.822 92.0511 249.43 92.0511C247.75 92.0511 246.91 91.2017 246.91 89.5031V87.4311C246.91 85.7324 247.755 84.8831 249.444 84.8831ZM253.695 85.9611C254.209 85.2424 254.806 84.8831 255.487 84.8831C256.085 84.8831 256.542 85.0884 256.859 85.4991C257.186 85.9004 257.349 86.4744 257.349 87.2211V91.8831H256.159V87.3891C256.159 86.4557 255.856 85.9891 255.249 85.9891C254.979 85.9891 254.703 86.0917 254.423 86.2971C254.143 86.5024 253.901 86.7824 253.695 87.1371V91.8831H252.505V82.3211H253.695V85.9611ZM262.228 84.8831C262.358 84.8831 262.461 84.8924 262.536 84.9111V86.2551C262.396 86.2271 262.214 86.2131 261.99 86.2131C261.336 86.2131 260.818 86.5397 260.436 87.1931V91.8831H259.246V85.0511H260.366V86.0731C260.618 85.6904 260.898 85.3964 261.206 85.1911C261.523 84.9857 261.864 84.8831 262.228 84.8831ZM264.988 85.0511V91.8831H263.798V85.0511H264.988ZM264.386 82.2931C264.638 82.2931 264.83 82.3491 264.96 82.4611C265.1 82.5731 265.17 82.7317 265.17 82.9371V83.3431C265.17 83.5484 265.1 83.7071 264.96 83.8191C264.83 83.9217 264.638 83.9731 264.386 83.9731C264.144 83.9731 263.952 83.9217 263.812 83.8191C263.682 83.7071 263.616 83.5484 263.616 83.3431V82.9371C263.616 82.7317 263.682 82.5731 263.812 82.4611C263.952 82.3491 264.144 82.2931 264.386 82.2931ZM269.911 84.8831C270.499 84.8831 270.956 85.0837 271.283 85.4851C271.61 85.8864 271.773 86.4651 271.773 87.2211V89.7131C271.773 90.4411 271.582 91.0151 271.199 91.4351C270.826 91.8457 270.317 92.0511 269.673 92.0511C269.43 92.0511 269.169 91.9997 268.889 91.8971C268.618 91.8037 268.366 91.6917 268.133 91.5611V94.4731H266.943V85.0511H268.063V86.0451C268.576 85.2704 269.192 84.8831 269.911 84.8831ZM269.673 85.9471C269.402 85.9471 269.127 86.0497 268.847 86.2551C268.576 86.4511 268.338 86.7217 268.133 87.0671V90.4971C268.329 90.6557 268.544 90.7817 268.777 90.8751C269.02 90.9591 269.239 91.0011 269.435 91.0011C270.2 91.0011 270.583 90.5157 270.583 89.5451V87.3891C270.583 86.4277 270.28 85.9471 269.673 85.9471ZM275.547 84.8831C275.939 84.8831 276.411 84.9391 276.961 85.0511L276.933 86.0591C276.448 85.9471 276.005 85.8911 275.603 85.8911C274.763 85.8911 274.343 86.1617 274.343 86.7031V86.8291C274.343 86.9971 274.385 87.1324 274.469 87.2351C274.563 87.3377 274.726 87.4451 274.959 87.5571L276.275 88.1731C277.069 88.5464 277.465 89.0924 277.465 89.8111V90.1191C277.456 90.7631 277.26 91.2484 276.877 91.5751C276.504 91.8924 275.911 92.0511 275.099 92.0511C274.679 92.0511 274.077 91.9531 273.293 91.7571L273.349 90.6931C274.049 90.8984 274.623 91.0011 275.071 91.0011C275.529 91.0011 275.846 90.9404 276.023 90.8191C276.201 90.6884 276.289 90.4784 276.289 90.1891V90.0491C276.289 89.8251 276.243 89.6477 276.149 89.5171C276.065 89.3864 275.921 89.2744 275.715 89.1811L274.357 88.5791C273.947 88.3924 273.643 88.1684 273.447 87.9071C273.261 87.6457 273.167 87.3424 273.167 86.9971V86.8011C273.186 86.1664 273.382 85.6904 273.755 85.3731C274.138 85.0464 274.735 84.8831 275.547 84.8831ZM282.639 85.0511V91.8831H281.449V85.0511H282.639ZM282.037 82.2931C282.289 82.2931 282.48 82.3491 282.611 82.4611C282.751 82.5731 282.821 82.7317 282.821 82.9371V83.3431C282.821 83.5484 282.751 83.7071 282.611 83.8191C282.48 83.9217 282.289 83.9731 282.037 83.9731C281.794 83.9731 281.603 83.9217 281.463 83.8191C281.332 83.7071 281.267 83.5484 281.267 83.3431V82.9371C281.267 82.7317 281.332 82.5731 281.463 82.4611C281.603 82.3491 281.794 82.2931 282.037 82.2931ZM287.575 84.8831C288.173 84.8831 288.63 85.0884 288.947 85.4991C289.274 85.9004 289.437 86.4744 289.437 87.2211V91.8831H288.247V87.3891C288.247 86.4557 287.944 85.9891 287.337 85.9891C287.067 85.9891 286.791 86.0917 286.511 86.2971C286.231 86.5024 285.989 86.7824 285.783 87.1371V91.8831H284.593V85.0511H285.713V86.0731C285.965 85.6904 286.245 85.3964 286.553 85.1911C286.871 84.9857 287.211 84.8831 287.575 84.8831ZM296.004 84.8831C296.806 84.8831 297.39 85.0651 297.754 85.4291C298.127 85.7837 298.314 86.3531 298.314 87.1371V91.8831H297.18V90.7911C296.638 91.6311 296.027 92.0511 295.346 92.0511C294.804 92.0511 294.37 91.8644 294.044 91.4911C293.726 91.1177 293.568 90.6091 293.568 89.9651V89.5731C293.568 89.0131 293.759 88.5511 294.142 88.1871C294.524 87.8137 295.038 87.6271 295.682 87.6271C296.036 87.6271 296.517 87.6877 297.124 87.8091V87.0391C297.124 86.6377 297.03 86.3484 296.844 86.1711C296.666 85.9937 296.386 85.9051 296.004 85.9051C295.556 85.9051 294.926 85.9751 294.114 86.1151V85.0931C294.991 84.9531 295.621 84.8831 296.004 84.8831ZM295.976 88.5511C295.584 88.5511 295.285 88.6537 295.08 88.8591C294.874 89.0644 294.772 89.3537 294.772 89.7271V89.8811C294.772 90.2264 294.851 90.4971 295.01 90.6931C295.168 90.8891 295.369 90.9871 295.612 90.9871C295.864 90.9871 296.12 90.8797 296.382 90.6651C296.652 90.4411 296.9 90.1284 297.124 89.7271V88.6491C296.769 88.5837 296.386 88.5511 295.976 88.5511ZM80.6432 98.4691V106.883H79.4532V99.6171H79.4252L77.5632 100.415L77.3252 99.3931L79.5932 98.4691H80.6432ZM86.6985 99.4491H83.5345V102.179C84.0665 101.75 84.7012 101.535 85.4385 101.535C86.0825 101.535 86.5632 101.726 86.8805 102.109C87.2072 102.482 87.3705 103.084 87.3705 103.915V104.419C87.3705 106.174 86.4605 107.051 84.6405 107.051C84.3139 107.051 83.9545 107.018 83.5625 106.953C83.1705 106.897 82.8252 106.827 82.5265 106.743V105.777C82.7972 105.833 83.1565 105.894 83.6045 105.959C84.0525 106.015 84.3885 106.043 84.6125 106.043C85.1259 106.043 85.5132 105.908 85.7745 105.637C86.0452 105.357 86.1805 104.951 86.1805 104.419V103.873C86.1805 102.977 85.8352 102.529 85.1445 102.529C84.7712 102.529 84.4399 102.599 84.1505 102.739C83.8705 102.879 83.5859 103.112 83.2965 103.439H82.3865V98.4271H86.6985V99.4491ZM91.8562 102.291V103.201H88.7762V102.291H91.8562ZM95.7007 99.8831C96.0927 99.8831 96.5641 99.9391 97.1147 100.051L97.0867 101.059C96.6014 100.947 96.1581 100.891 95.7567 100.891C94.9167 100.891 94.4967 101.162 94.4967 101.703V101.829C94.4967 101.997 94.5387 102.132 94.6227 102.235C94.7161 102.338 94.8794 102.445 95.1127 102.557L96.4287 103.173C97.2221 103.546 97.6187 104.092 97.6187 104.811V105.119C97.6094 105.763 97.4134 106.248 97.0307 106.575C96.6574 106.892 96.0647 107.051 95.2527 107.051C94.8327 107.051 94.2307 106.953 93.4467 106.757L93.5027 105.693C94.2027 105.898 94.7767 106.001 95.2247 106.001C95.6821 106.001 95.9994 105.94 96.1767 105.819C96.3541 105.688 96.4427 105.478 96.4427 105.189V105.049C96.4427 104.825 96.3961 104.648 96.3027 104.517C96.2187 104.386 96.0741 104.274 95.8687 104.181L94.5107 103.579C94.1001 103.392 93.7967 103.168 93.6007 102.907C93.4141 102.646 93.3207 102.342 93.3207 101.997V101.801C93.3394 101.166 93.5354 100.69 93.9087 100.373C94.2914 100.046 94.8887 99.8831 95.7007 99.8831ZM101.326 99.8831C102.11 99.8831 102.708 100.098 103.118 100.527C103.529 100.956 103.734 101.577 103.734 102.389V103.831H100.136V104.657C100.136 105.133 100.248 105.478 100.472 105.693C100.706 105.898 101.07 106.001 101.564 106.001C102.05 106.001 102.656 105.926 103.384 105.777L103.412 106.813C102.544 106.972 101.924 107.051 101.55 107.051C100.626 107.051 99.9591 106.85 99.5484 106.449C99.1471 106.048 98.9464 105.427 98.9464 104.587V102.389C98.9464 101.577 99.1424 100.956 99.5344 100.527C99.9358 100.098 100.533 99.8831 101.326 99.8831ZM101.326 100.877C100.962 100.877 100.673 100.994 100.458 101.227C100.244 101.451 100.136 101.778 100.136 102.207V102.879H102.544V102.249C102.544 101.801 102.432 101.46 102.208 101.227C101.994 100.994 101.7 100.877 101.326 100.877ZM107.742 99.8831C108.162 99.8831 108.638 99.9437 109.17 100.065L109.142 101.115C108.601 100.994 108.134 100.933 107.742 100.933C107.303 100.933 106.967 101.054 106.734 101.297C106.51 101.54 106.398 101.885 106.398 102.333V104.587C106.398 105.054 106.515 105.408 106.748 105.651C106.991 105.884 107.322 106.001 107.742 106.001C108.003 106.001 108.232 105.987 108.428 105.959C108.624 105.931 108.862 105.884 109.142 105.819L109.17 106.869C108.601 106.99 108.12 107.051 107.728 107.051C106.048 107.051 105.208 106.202 105.208 104.503V102.431C105.208 100.732 106.053 99.8831 107.742 99.8831ZM113.127 99.8831C113.958 99.8831 114.574 100.107 114.975 100.555C115.386 100.994 115.591 101.619 115.591 102.431V104.503C115.591 105.315 115.386 105.945 114.975 106.393C114.574 106.832 113.958 107.051 113.127 107.051C112.297 107.051 111.676 106.832 111.265 106.393C110.864 105.945 110.663 105.315 110.663 104.503V102.431C110.663 101.619 110.864 100.994 111.265 100.555C111.676 100.107 112.297 99.8831 113.127 99.8831ZM113.127 100.877C112.726 100.877 112.413 101.003 112.189 101.255C111.965 101.507 111.853 101.866 111.853 102.333V104.601C111.853 105.068 111.965 105.427 112.189 105.679C112.413 105.931 112.726 106.057 113.127 106.057C113.529 106.057 113.841 105.931 114.065 105.679C114.289 105.427 114.401 105.068 114.401 104.601V102.319C114.401 101.852 114.289 101.498 114.065 101.255C113.841 101.003 113.529 100.877 113.127 100.877ZM120.389 99.8831C120.986 99.8831 121.443 100.088 121.761 100.499C122.087 100.9 122.251 101.474 122.251 102.221V106.883H121.061V102.389C121.061 101.456 120.757 100.989 120.151 100.989C119.88 100.989 119.605 101.092 119.325 101.297C119.045 101.502 118.802 101.782 118.597 102.137V106.883H117.407V100.051H118.527V101.073C118.779 100.69 119.059 100.396 119.367 100.191C119.684 99.9857 120.025 99.8831 120.389 99.8831ZM128.919 106.883H127.785V105.777C127.225 106.626 126.586 107.051 125.867 107.051C125.289 107.051 124.845 106.855 124.537 106.463C124.229 106.062 124.075 105.478 124.075 104.713V102.221C124.075 101.484 124.243 100.91 124.579 100.499C124.925 100.088 125.415 99.8831 126.049 99.8831C126.32 99.8831 126.605 99.9531 126.903 100.093C127.202 100.224 127.477 100.387 127.729 100.583V97.3211H128.919V106.883ZM126.315 100.947C125.979 100.947 125.718 101.068 125.531 101.311C125.354 101.544 125.265 101.904 125.265 102.389V104.559C125.265 105.511 125.559 105.987 126.147 105.987C126.427 105.987 126.703 105.88 126.973 105.665C127.253 105.441 127.505 105.128 127.729 104.727V101.647C127.533 101.442 127.3 101.274 127.029 101.143C126.768 101.012 126.53 100.947 126.315 100.947ZM136.357 99.8831C136.945 99.8831 137.403 100.084 137.729 100.485C138.056 100.886 138.219 101.465 138.219 102.221V104.713C138.219 105.441 138.028 106.015 137.645 106.435C137.272 106.846 136.763 107.051 136.119 107.051C135.877 107.051 135.615 107 135.335 106.897C135.065 106.804 134.813 106.692 134.579 106.561V109.473H133.389V100.051H134.509V101.045C135.023 100.27 135.639 99.8831 136.357 99.8831ZM136.119 100.947C135.849 100.947 135.573 101.05 135.293 101.255C135.023 101.451 134.785 101.722 134.579 102.067V105.497C134.775 105.656 134.99 105.782 135.223 105.875C135.466 105.959 135.685 106.001 135.881 106.001C136.647 106.001 137.029 105.516 137.029 104.545V102.389C137.029 101.428 136.726 100.947 136.119 100.947ZM142.274 99.8831C143.058 99.8831 143.655 100.098 144.066 100.527C144.476 100.956 144.682 101.577 144.682 102.389V103.831H141.084V104.657C141.084 105.133 141.196 105.478 141.42 105.693C141.653 105.898 142.017 106.001 142.512 106.001C142.997 106.001 143.604 105.926 144.332 105.777L144.36 106.813C143.492 106.972 142.871 107.051 142.498 107.051C141.574 107.051 140.906 106.85 140.496 106.449C140.094 106.048 139.894 105.427 139.894 104.587V102.389C139.894 101.577 140.09 100.956 140.482 100.527C140.883 100.098 141.48 99.8831 142.274 99.8831ZM142.274 100.877C141.91 100.877 141.62 100.994 141.406 101.227C141.191 101.451 141.084 101.778 141.084 102.207V102.879H143.492V102.249C143.492 101.801 143.38 101.46 143.156 101.227C142.941 100.994 142.647 100.877 142.274 100.877ZM149.277 99.8831C149.408 99.8831 149.511 99.8924 149.585 99.9111V101.255C149.445 101.227 149.263 101.213 149.039 101.213C148.386 101.213 147.868 101.54 147.485 102.193V106.883H146.295V100.051H147.415V101.073C147.667 100.69 147.947 100.396 148.255 100.191C148.573 99.9857 148.913 99.8831 149.277 99.8831ZM152.038 100.051V106.883H150.848V100.051H152.038ZM151.436 97.2931C151.688 97.2931 151.879 97.3491 152.01 97.4611C152.15 97.5731 152.22 97.7317 152.22 97.9371V98.3431C152.22 98.5484 152.15 98.7071 152.01 98.8191C151.879 98.9217 151.688 98.9731 151.436 98.9731C151.193 98.9731 151.002 98.9217 150.862 98.8191C150.731 98.7071 150.666 98.5484 150.666 98.3431V97.9371C150.666 97.7317 150.731 97.5731 150.862 97.4611C151.002 97.3491 151.193 97.2931 151.436 97.2931ZM156.317 99.8831C157.147 99.8831 157.763 100.107 158.165 100.555C158.575 100.994 158.781 101.619 158.781 102.431V104.503C158.781 105.315 158.575 105.945 158.165 106.393C157.763 106.832 157.147 107.051 156.317 107.051C155.486 107.051 154.865 106.832 154.455 106.393C154.053 105.945 153.853 105.315 153.853 104.503V102.431C153.853 101.619 154.053 100.994 154.455 100.555C154.865 100.107 155.486 99.8831 156.317 99.8831ZM156.317 100.877C155.915 100.877 155.603 101.003 155.379 101.255C155.155 101.507 155.043 101.866 155.043 102.333V104.601C155.043 105.068 155.155 105.427 155.379 105.679C155.603 105.931 155.915 106.057 156.317 106.057C156.718 106.057 157.031 105.931 157.255 105.679C157.479 105.427 157.591 105.068 157.591 104.601V102.319C157.591 101.852 157.479 101.498 157.255 101.255C157.031 101.003 156.718 100.877 156.317 100.877ZM165.3 106.883H164.166V105.777C163.606 106.626 162.967 107.051 162.248 107.051C161.67 107.051 161.226 106.855 160.918 106.463C160.61 106.062 160.456 105.478 160.456 104.713V102.221C160.456 101.484 160.624 100.91 160.96 100.499C161.306 100.088 161.796 99.8831 162.43 99.8831C162.701 99.8831 162.986 99.9531 163.284 100.093C163.583 100.224 163.858 100.387 164.11 100.583V97.3211H165.3V106.883ZM162.696 100.947C162.36 100.947 162.099 101.068 161.912 101.311C161.735 101.544 161.646 101.904 161.646 102.389V104.559C161.646 105.511 161.94 105.987 162.528 105.987C162.808 105.987 163.084 105.88 163.354 105.665C163.634 105.441 163.886 105.128 164.11 104.727V101.647C163.914 101.442 163.681 101.274 163.41 101.143C163.149 101.012 162.911 100.947 162.696 100.947ZM167.814 105.343C168.066 105.343 168.258 105.399 168.388 105.511C168.519 105.614 168.584 105.768 168.584 105.973V106.421C168.584 106.692 168.552 106.93 168.486 107.135L167.884 109.137H167.044L167.548 106.995C167.222 106.92 167.058 106.72 167.058 106.393V105.973C167.058 105.768 167.124 105.614 167.254 105.511C167.385 105.399 167.572 105.343 167.814 105.343ZM174.932 99.8831C175.735 99.8831 176.318 100.065 176.682 100.429C177.056 100.784 177.242 101.353 177.242 102.137V106.883H176.108V105.791C175.567 106.631 174.956 107.051 174.274 107.051C173.733 107.051 173.299 106.864 172.972 106.491C172.655 106.118 172.496 105.609 172.496 104.965V104.573C172.496 104.013 172.688 103.551 173.07 103.187C173.453 102.814 173.966 102.627 174.61 102.627C174.965 102.627 175.446 102.688 176.052 102.809V102.039C176.052 101.638 175.959 101.348 175.772 101.171C175.595 100.994 175.315 100.905 174.932 100.905C174.484 100.905 173.854 100.975 173.042 101.115V100.093C173.92 99.9531 174.55 99.8831 174.932 99.8831ZM174.904 103.551C174.512 103.551 174.214 103.654 174.008 103.859C173.803 104.064 173.7 104.354 173.7 104.727V104.881C173.7 105.226 173.78 105.497 173.938 105.693C174.097 105.889 174.298 105.987 174.54 105.987C174.792 105.987 175.049 105.88 175.31 105.665C175.581 105.441 175.828 105.128 176.052 104.727V103.649C175.698 103.584 175.315 103.551 174.904 103.551ZM183.839 106.883H182.705V105.777C182.145 106.626 181.506 107.051 180.787 107.051C180.209 107.051 179.765 106.855 179.457 106.463C179.149 106.062 178.995 105.478 178.995 104.713V102.221C178.995 101.484 179.163 100.91 179.499 100.499C179.845 100.088 180.335 99.8831 180.969 99.8831C181.24 99.8831 181.525 99.9531 181.823 100.093C182.122 100.224 182.397 100.387 182.649 100.583V97.3211H183.839V106.883ZM181.235 100.947C180.899 100.947 180.638 101.068 180.451 101.311C180.274 101.544 180.185 101.904 180.185 102.389V104.559C180.185 105.511 180.479 105.987 181.067 105.987C181.347 105.987 181.623 105.88 181.893 105.665C182.173 105.441 182.425 105.128 182.649 104.727V101.647C182.453 101.442 182.22 101.274 181.949 101.143C181.688 101.012 181.45 100.947 181.235 100.947ZM190.497 106.883H189.363V105.777C188.803 106.626 188.164 107.051 187.445 107.051C186.867 107.051 186.423 106.855 186.115 106.463C185.807 106.062 185.653 105.478 185.653 104.713V102.221C185.653 101.484 185.821 100.91 186.157 100.499C186.503 100.088 186.993 99.8831 187.627 99.8831C187.898 99.8831 188.183 99.9531 188.481 100.093C188.78 100.224 189.055 100.387 189.307 100.583V97.3211H190.497V106.883ZM187.893 100.947C187.557 100.947 187.296 101.068 187.109 101.311C186.932 101.544 186.843 101.904 186.843 102.389V104.559C186.843 105.511 187.137 105.987 187.725 105.987C188.005 105.987 188.281 105.88 188.551 105.665C188.831 105.441 189.083 105.128 189.307 104.727V101.647C189.111 101.442 188.878 101.274 188.607 101.143C188.346 101.012 188.108 100.947 187.893 100.947ZM196.171 98.3011C196.965 98.3011 197.571 98.4924 197.991 98.8751C198.411 99.2577 198.621 99.7944 198.621 100.485V100.625C198.621 101.054 198.528 101.432 198.341 101.759C198.164 102.076 197.898 102.319 197.543 102.487C197.926 102.646 198.229 102.902 198.453 103.257C198.687 103.612 198.803 104.013 198.803 104.461V104.601C198.803 105.338 198.579 105.931 198.131 106.379C197.693 106.827 197.053 107.051 196.213 107.051C195.775 107.051 195.173 106.99 194.407 106.869V105.875C195.117 105.996 195.719 106.057 196.213 106.057C196.661 106.057 197.007 105.936 197.249 105.693C197.492 105.441 197.613 105.1 197.613 104.671V104.447C197.613 103.495 197.123 103.019 196.143 103.019H194.897V102.067H196.143C196.582 102.067 196.904 101.96 197.109 101.745C197.324 101.521 197.431 101.166 197.431 100.681V100.415C197.431 99.6591 197.011 99.2811 196.171 99.2811C195.761 99.2811 195.173 99.3464 194.407 99.4771V98.4831C195.173 98.3617 195.761 98.3011 196.171 98.3011ZM204.553 98.4831V99.2951L201.417 106.883H200.143L203.279 99.5471V99.5191H199.499V98.4831H204.553ZM209.615 100.051H211.435V101.031H209.615V105.035C209.615 105.39 209.685 105.646 209.825 105.805C209.975 105.954 210.203 106.029 210.511 106.029C210.903 106.029 211.286 105.982 211.659 105.889L211.687 106.883C211.277 106.995 210.903 107.051 210.567 107.051C209.821 107.051 209.275 106.888 208.929 106.561C208.593 106.225 208.425 105.684 208.425 104.937V101.031H207.445V100.051H208.425L208.649 98.2311H209.615V100.051ZM215.27 99.8831C216.1 99.8831 216.716 100.107 217.118 100.555C217.528 100.994 217.734 101.619 217.734 102.431V104.503C217.734 105.315 217.528 105.945 217.118 106.393C216.716 106.832 216.1 107.051 215.27 107.051C214.439 107.051 213.818 106.832 213.408 106.393C213.006 105.945 212.806 105.315 212.806 104.503V102.431C212.806 101.619 213.006 100.994 213.408 100.555C213.818 100.107 214.439 99.8831 215.27 99.8831ZM215.27 100.877C214.868 100.877 214.556 101.003 214.332 101.255C214.108 101.507 213.996 101.866 213.996 102.333V104.601C213.996 105.068 214.108 105.427 214.332 105.679C214.556 105.931 214.868 106.057 215.27 106.057C215.671 106.057 215.984 105.931 216.208 105.679C216.432 105.427 216.544 105.068 216.544 104.601V102.319C216.544 101.852 216.432 101.498 216.208 101.255C215.984 101.003 215.671 100.877 215.27 100.877ZM223.465 100.051H225.285V101.031H223.465V105.035C223.465 105.39 223.535 105.646 223.675 105.805C223.824 105.954 224.053 106.029 224.361 106.029C224.753 106.029 225.136 105.982 225.509 105.889L225.537 106.883C225.126 106.995 224.753 107.051 224.417 107.051C223.67 107.051 223.124 106.888 222.779 106.561C222.443 106.225 222.275 105.684 222.275 104.937V101.031H221.295V100.051H222.275L222.499 98.2311H223.465V100.051ZM227.985 100.961C228.499 100.242 229.096 99.8831 229.777 99.8831C230.375 99.8831 230.832 100.088 231.149 100.499C231.476 100.9 231.639 101.474 231.639 102.221V106.883H230.449V102.389C230.449 101.456 230.146 100.989 229.539 100.989C229.269 100.989 228.993 101.092 228.713 101.297C228.433 101.502 228.191 101.782 227.985 102.137V106.883H226.795V97.3211H227.985V100.961ZM235.776 99.8831C236.56 99.8831 237.157 100.098 237.568 100.527C237.978 100.956 238.184 101.577 238.184 102.389V103.831H234.586V104.657C234.586 105.133 234.698 105.478 234.922 105.693C235.155 105.898 235.519 106.001 236.014 106.001C236.499 106.001 237.106 105.926 237.834 105.777L237.862 106.813C236.994 106.972 236.373 107.051 236 107.051C235.076 107.051 234.408 106.85 233.998 106.449C233.596 106.048 233.396 105.427 233.396 104.587V102.389C233.396 101.577 233.592 100.956 233.984 100.527C234.385 100.098 234.982 99.8831 235.776 99.8831ZM235.776 100.877C235.412 100.877 235.122 100.994 234.908 101.227C234.693 101.451 234.586 101.778 234.586 102.207V102.879H236.994V102.249C236.994 101.801 236.882 101.46 236.658 101.227C236.443 100.994 236.149 100.877 235.776 100.877ZM243.713 100.051H245.533V101.031H243.713V105.035C243.713 105.39 243.783 105.646 243.923 105.805C244.072 105.954 244.301 106.029 244.609 106.029C245.001 106.029 245.384 105.982 245.757 105.889L245.785 106.883C245.374 106.995 245.001 107.051 244.665 107.051C243.918 107.051 243.372 106.888 243.027 106.561C242.691 106.225 242.523 105.684 242.523 104.937V101.031H241.543V100.051H242.523L242.747 98.2311H243.713V100.051ZM249.367 99.8831C250.198 99.8831 250.814 100.107 251.215 100.555C251.626 100.994 251.831 101.619 251.831 102.431V104.503C251.831 105.315 251.626 105.945 251.215 106.393C250.814 106.832 250.198 107.051 249.367 107.051C248.537 107.051 247.916 106.832 247.505 106.393C247.104 105.945 246.903 105.315 246.903 104.503V102.431C246.903 101.619 247.104 100.994 247.505 100.555C247.916 100.107 248.537 99.8831 249.367 99.8831ZM249.367 100.877C248.966 100.877 248.653 101.003 248.429 101.255C248.205 101.507 248.093 101.866 248.093 102.333V104.601C248.093 105.068 248.205 105.427 248.429 105.679C248.653 105.931 248.966 106.057 249.367 106.057C249.769 106.057 250.081 105.931 250.305 105.679C250.529 105.427 250.641 105.068 250.641 104.601V102.319C250.641 101.852 250.529 101.498 250.305 101.255C250.081 101.003 249.769 100.877 249.367 100.877ZM255.088 100.051H256.908V101.031H255.088V105.035C255.088 105.39 255.158 105.646 255.298 105.805C255.447 105.954 255.676 106.029 255.984 106.029C256.376 106.029 256.759 105.982 257.132 105.889L257.16 106.883C256.749 106.995 256.376 107.051 256.04 107.051C255.293 107.051 254.747 106.888 254.402 106.561C254.066 106.225 253.898 105.684 253.898 104.937V101.031H252.918V100.051H253.898L254.122 98.2311H255.088V100.051ZM260.504 99.8831C261.307 99.8831 261.89 100.065 262.254 100.429C262.628 100.784 262.814 101.353 262.814 102.137V106.883H261.68V105.791C261.139 106.631 260.528 107.051 259.846 107.051C259.305 107.051 258.871 106.864 258.544 106.491C258.227 106.118 258.068 105.609 258.068 104.965V104.573C258.068 104.013 258.26 103.551 258.642 103.187C259.025 102.814 259.538 102.627 260.182 102.627C260.537 102.627 261.018 102.688 261.624 102.809V102.039C261.624 101.638 261.531 101.348 261.344 101.171C261.167 100.994 260.887 100.905 260.504 100.905C260.056 100.905 259.426 100.975 258.614 101.115V100.093C259.492 99.9531 260.122 99.8831 260.504 99.8831ZM260.476 103.551C260.084 103.551 259.786 103.654 259.58 103.859C259.375 104.064 259.272 104.354 259.272 104.727V104.881C259.272 105.226 259.352 105.497 259.51 105.693C259.669 105.889 259.87 105.987 260.112 105.987C260.364 105.987 260.621 105.88 260.882 105.665C261.153 105.441 261.4 105.128 261.624 104.727V103.649C261.27 103.584 260.887 103.551 260.476 103.551ZM265.898 97.3211V106.883H264.708V97.3211H265.898ZM268.412 105.343C268.664 105.343 268.855 105.399 268.986 105.511C269.117 105.614 269.182 105.768 269.182 105.973V106.421C269.182 106.692 269.149 106.93 269.084 107.135L268.482 109.137H267.642L268.146 106.995C267.819 106.92 267.656 106.72 267.656 106.393V105.973C267.656 105.768 267.721 105.614 267.852 105.511C267.983 105.399 268.169 105.343 268.412 105.343ZM275.53 99.8831C276.333 99.8831 276.916 100.065 277.28 100.429C277.653 100.784 277.84 101.353 277.84 102.137V106.883H276.706V105.791C276.165 106.631 275.553 107.051 274.872 107.051C274.331 107.051 273.897 106.864 273.57 106.491C273.253 106.118 273.094 105.609 273.094 104.965V104.573C273.094 104.013 273.285 103.551 273.668 103.187C274.051 102.814 274.564 102.627 275.208 102.627C275.563 102.627 276.043 102.688 276.65 102.809V102.039C276.65 101.638 276.557 101.348 276.37 101.171C276.193 100.994 275.913 100.905 275.53 100.905C275.082 100.905 274.452 100.975 273.64 101.115V100.093C274.517 99.9531 275.147 99.8831 275.53 99.8831ZM275.502 103.551C275.11 103.551 274.811 103.654 274.606 103.859C274.401 104.064 274.298 104.354 274.298 104.727V104.881C274.298 105.226 274.377 105.497 274.536 105.693C274.695 105.889 274.895 105.987 275.138 105.987C275.39 105.987 275.647 105.88 275.908 105.665C276.179 105.441 276.426 105.128 276.65 104.727V103.649C276.295 103.584 275.913 103.551 275.502 103.551ZM282.715 99.8831C283.312 99.8831 283.77 100.088 284.087 100.499C284.414 100.9 284.577 101.474 284.577 102.221V106.883H283.387V102.389C283.387 101.456 283.084 100.989 282.477 100.989C282.206 100.989 281.931 101.092 281.651 101.297C281.371 101.502 281.128 101.782 280.923 102.137V106.883H279.733V100.051H280.853V101.073C281.105 100.69 281.385 100.396 281.693 100.191C282.01 99.9857 282.351 99.8831 282.715 99.8831ZM291.246 106.883H290.112V105.777C289.552 106.626 288.912 107.051 288.194 107.051C287.615 107.051 287.172 106.855 286.864 106.463C286.556 106.062 286.402 105.478 286.402 104.713V102.221C286.402 101.484 286.57 100.91 286.906 100.499C287.251 100.088 287.741 99.8831 288.376 99.8831C288.646 99.8831 288.931 99.9531 289.23 100.093C289.528 100.224 289.804 100.387 290.056 100.583V97.3211H291.246V106.883ZM288.642 100.947C288.306 100.947 288.044 101.068 287.858 101.311C287.68 101.544 287.592 101.904 287.592 102.389V104.559C287.592 105.511 287.886 105.987 288.474 105.987C288.754 105.987 289.029 105.88 289.3 105.665C289.58 105.441 289.832 105.128 290.056 104.727V101.647C289.86 101.442 289.626 101.274 289.356 101.143C289.094 101.012 288.856 100.947 288.642 100.947ZM300.699 100.051L297.563 109.473H296.373L297.269 106.883H296.821L294.875 100.051H296.177L297.647 106.029L299.467 100.051H300.699ZM304.096 99.8831C304.927 99.8831 305.543 100.107 305.944 100.555C306.355 100.994 306.56 101.619 306.56 102.431V104.503C306.56 105.315 306.355 105.945 305.944 106.393C305.543 106.832 304.927 107.051 304.096 107.051C303.265 107.051 302.645 106.832 302.234 106.393C301.833 105.945 301.632 105.315 301.632 104.503V102.431C301.632 101.619 301.833 100.994 302.234 100.555C302.645 100.107 303.265 99.8831 304.096 99.8831ZM304.096 100.877C303.695 100.877 303.382 101.003 303.158 101.255C302.934 101.507 302.822 101.866 302.822 102.333V104.601C302.822 105.068 302.934 105.427 303.158 105.679C303.382 105.931 303.695 106.057 304.096 106.057C304.497 106.057 304.81 105.931 305.034 105.679C305.258 105.427 305.37 105.068 305.37 104.601V102.319C305.37 101.852 305.258 101.498 305.034 101.255C304.81 101.003 304.497 100.877 304.096 100.877ZM313.136 106.883H312.016V105.903C311.764 106.276 311.484 106.561 311.176 106.757C310.868 106.953 310.541 107.051 310.196 107.051C309.626 107.051 309.178 106.855 308.852 106.463C308.534 106.062 308.376 105.478 308.376 104.713V100.051H309.566V104.503C309.566 104.998 309.64 105.362 309.79 105.595C309.948 105.828 310.163 105.945 310.434 105.945C310.686 105.945 310.947 105.847 311.218 105.651C311.498 105.446 311.74 105.166 311.946 104.811V100.051H313.136V106.883ZM318.084 99.8831C318.215 99.8831 318.317 99.8924 318.392 99.9111V101.255C318.252 101.227 318.07 101.213 317.846 101.213C317.193 101.213 316.675 101.54 316.292 102.193V106.883H315.102V100.051H316.222V101.073C316.474 100.69 316.754 100.396 317.062 100.191C317.379 99.9857 317.72 99.8831 318.084 99.8831ZM83.5431 114.883C83.6737 114.883 83.7764 114.892 83.8511 114.911V116.255C83.7111 116.227 83.5291 116.213 83.3051 116.213C82.6517 116.213 82.1337 116.54 81.7511 117.193V121.883H80.5611V115.051H81.6811V116.073C81.9331 115.69 82.2131 115.396 82.5211 115.191C82.8384 114.986 83.1791 114.883 83.5431 114.883ZM87.2581 114.883C88.0421 114.883 88.6394 115.098 89.0501 115.527C89.4608 115.956 89.6661 116.577 89.6661 117.389V118.831H86.0681V119.657C86.0681 120.133 86.1801 120.478 86.4041 120.693C86.6374 120.898 87.0014 121.001 87.4961 121.001C87.9814 121.001 88.5881 120.926 89.3161 120.777L89.3441 121.813C88.4761 121.972 87.8554 122.051 87.4821 122.051C86.5581 122.051 85.8908 121.85 85.4801 121.449C85.0788 121.048 84.8781 120.427 84.8781 119.587V117.389C84.8781 116.577 85.0741 115.956 85.4661 115.527C85.8674 115.098 86.4648 114.883 87.2581 114.883ZM87.2581 115.877C86.8941 115.877 86.6048 115.994 86.3901 116.227C86.1754 116.451 86.0681 116.778 86.0681 117.207V117.879H88.4761V117.249C88.4761 116.801 88.3641 116.46 88.1401 116.227C87.9254 115.994 87.6314 115.877 87.2581 115.877ZM93.2398 114.883C93.6318 114.883 94.1031 114.939 94.6538 115.051L94.6258 116.059C94.1405 115.947 93.6971 115.891 93.2958 115.891C92.4558 115.891 92.0358 116.162 92.0358 116.703V116.829C92.0358 116.997 92.0778 117.132 92.1618 117.235C92.2551 117.338 92.4185 117.445 92.6518 117.557L93.9678 118.173C94.7611 118.546 95.1578 119.092 95.1578 119.811V120.119C95.1485 120.763 94.9525 121.248 94.5698 121.575C94.1965 121.892 93.6038 122.051 92.7918 122.051C92.3718 122.051 91.7698 121.953 90.9858 121.757L91.0418 120.693C91.7418 120.898 92.3158 121.001 92.7638 121.001C93.2211 121.001 93.5385 120.94 93.7158 120.819C93.8931 120.688 93.9818 120.478 93.9818 120.189V120.049C93.9818 119.825 93.9351 119.648 93.8418 119.517C93.7578 119.386 93.6131 119.274 93.4078 119.181L92.0498 118.579C91.6391 118.392 91.3358 118.168 91.1398 117.907C90.9531 117.646 90.8598 117.342 90.8598 116.997V116.801C90.8785 116.166 91.0745 115.69 91.4478 115.373C91.8305 115.046 92.4278 114.883 93.2398 114.883ZM101.344 121.883H100.224V120.903C99.9725 121.276 99.6925 121.561 99.3845 121.757C99.0765 121.953 98.7498 122.051 98.4045 122.051C97.8352 122.051 97.3872 121.855 97.0605 121.463C96.7432 121.062 96.5845 120.478 96.5845 119.713V115.051H97.7745V119.503C97.7745 119.998 97.8492 120.362 97.9985 120.595C98.1572 120.828 98.3718 120.945 98.6425 120.945C98.8945 120.945 99.1558 120.847 99.4265 120.651C99.7065 120.446 99.9492 120.166 100.154 119.811V115.051H101.344V121.883ZM104.501 112.321V121.883H103.311V112.321H104.501ZM107.856 115.051H109.676V116.031H107.856V120.035C107.856 120.39 107.926 120.646 108.066 120.805C108.215 120.954 108.444 121.029 108.752 121.029C109.144 121.029 109.526 120.982 109.9 120.889L109.928 121.883C109.517 121.995 109.144 122.051 108.808 122.051C108.061 122.051 107.515 121.888 107.17 121.561C106.834 121.225 106.666 120.684 106.666 119.937V116.031H105.686V115.051H106.666L106.89 113.231H107.856V115.051ZM121.934 115.051L120.352 121.883H118.854L117.468 116.087L116.068 121.883H114.57L113.002 115.051H114.262L115.368 120.833L116.698 115.051H118.238L119.554 120.833L120.674 115.051H121.934ZM124.38 115.051V121.883H123.19V115.051H124.38ZM123.778 112.293C124.03 112.293 124.221 112.349 124.352 112.461C124.492 112.573 124.562 112.732 124.562 112.937V113.343C124.562 113.548 124.492 113.707 124.352 113.819C124.221 113.922 124.03 113.973 123.778 113.973C123.535 113.973 123.344 113.922 123.204 113.819C123.073 113.707 123.008 113.548 123.008 113.343V112.937C123.008 112.732 123.073 112.573 123.204 112.461C123.344 112.349 123.535 112.293 123.778 112.293ZM127.524 112.321V121.883H126.334V112.321H127.524ZM130.669 112.321V121.883H129.479V112.321H130.669ZM136.259 115.961C136.502 115.616 136.782 115.35 137.099 115.163C137.417 114.976 137.748 114.883 138.093 114.883C138.672 114.883 139.12 115.088 139.437 115.499C139.755 115.9 139.913 116.488 139.913 117.263V119.475C139.913 120.324 139.713 120.968 139.311 121.407C138.91 121.836 138.289 122.051 137.449 122.051C136.628 122.051 136.026 121.841 135.643 121.421C135.261 121.001 135.069 120.362 135.069 119.503V112.321H136.259V115.961ZM137.813 115.947C137.543 115.947 137.267 116.05 136.987 116.255C136.707 116.46 136.465 116.74 136.259 117.095V119.643C136.259 120.1 136.362 120.45 136.567 120.693C136.782 120.936 137.076 121.057 137.449 121.057C138.299 121.057 138.723 120.576 138.723 119.615V117.431C138.723 116.442 138.42 115.947 137.813 115.947ZM143.969 114.883C144.753 114.883 145.35 115.098 145.761 115.527C146.172 115.956 146.377 116.577 146.377 117.389V118.831H142.779V119.657C142.779 120.133 142.891 120.478 143.115 120.693C143.348 120.898 143.712 121.001 144.207 121.001C144.692 121.001 145.299 120.926 146.027 120.777L146.055 121.813C145.187 121.972 144.566 122.051 144.193 122.051C143.269 122.051 142.602 121.85 142.191 121.449C141.79 121.048 141.589 120.427 141.589 119.587V117.389C141.589 116.577 141.785 115.956 142.177 115.527C142.578 115.098 143.176 114.883 143.969 114.883ZM143.969 115.877C143.605 115.877 143.316 115.994 143.101 116.227C142.886 116.451 142.779 116.778 142.779 117.207V117.879H145.187V117.249C145.187 116.801 145.075 116.46 144.851 116.227C144.636 115.994 144.342 115.877 143.969 115.877ZM155.434 115.051L153.32 121.883H151.766L149.666 115.051H150.926L152.55 121.015L154.174 115.051H155.434ZM158.748 114.883C159.532 114.883 160.13 115.098 160.54 115.527C160.951 115.956 161.156 116.577 161.156 117.389V118.831H157.558V119.657C157.558 120.133 157.67 120.478 157.894 120.693C158.128 120.898 158.492 121.001 158.986 121.001C159.472 121.001 160.078 120.926 160.806 120.777L160.834 121.813C159.966 121.972 159.346 122.051 158.972 122.051C158.048 122.051 157.381 121.85 156.97 121.449C156.569 121.048 156.368 120.427 156.368 119.587V117.389C156.368 116.577 156.564 115.956 156.956 115.527C157.358 115.098 157.955 114.883 158.748 114.883ZM158.748 115.877C158.384 115.877 158.095 115.994 157.88 116.227C157.666 116.451 157.558 116.778 157.558 117.207V117.879H159.966V117.249C159.966 116.801 159.854 116.46 159.63 116.227C159.416 115.994 159.122 115.877 158.748 115.877ZM165.752 114.883C165.883 114.883 165.985 114.892 166.06 114.911V116.255C165.92 116.227 165.738 116.213 165.514 116.213C164.861 116.213 164.343 116.54 163.96 117.193V121.883H162.77V115.051H163.89V116.073C164.142 115.69 164.422 115.396 164.73 115.191C165.047 114.986 165.388 114.883 165.752 114.883ZM172.58 115.051L169.444 124.473H168.254L169.15 121.883H168.702L166.756 115.051H168.058L169.528 121.029L171.348 115.051H172.58ZM178.603 114.883C179.023 114.883 179.499 114.944 180.031 115.065L180.003 116.115C179.462 115.994 178.995 115.933 178.603 115.933C178.165 115.933 177.829 116.054 177.595 116.297C177.371 116.54 177.259 116.885 177.259 117.333V119.587C177.259 120.054 177.376 120.408 177.609 120.651C177.852 120.884 178.183 121.001 178.603 121.001C178.865 121.001 179.093 120.987 179.289 120.959C179.485 120.931 179.723 120.884 180.003 120.819L180.031 121.869C179.462 121.99 178.981 122.051 178.589 122.051C176.909 122.051 176.069 121.202 176.069 119.503V117.431C176.069 115.732 176.914 114.883 178.603 114.883ZM182.855 112.321V121.883H181.665V112.321H182.855ZM187.133 114.883C187.964 114.883 188.58 115.107 188.981 115.555C189.392 115.994 189.597 116.619 189.597 117.431V119.503C189.597 120.315 189.392 120.945 188.981 121.393C188.58 121.832 187.964 122.051 187.133 122.051C186.302 122.051 185.682 121.832 185.271 121.393C184.87 120.945 184.669 120.315 184.669 119.503V117.431C184.669 116.619 184.87 115.994 185.271 115.555C185.682 115.107 186.302 114.883 187.133 114.883ZM187.133 115.877C186.732 115.877 186.419 116.003 186.195 116.255C185.971 116.507 185.859 116.866 185.859 117.333V119.601C185.859 120.068 185.971 120.427 186.195 120.679C186.419 120.931 186.732 121.057 187.133 121.057C187.534 121.057 187.847 120.931 188.071 120.679C188.295 120.427 188.407 120.068 188.407 119.601V117.319C188.407 116.852 188.295 116.498 188.071 116.255C187.847 116.003 187.534 115.877 187.133 115.877ZM193.373 114.883C193.765 114.883 194.236 114.939 194.787 115.051L194.759 116.059C194.273 115.947 193.83 115.891 193.429 115.891C192.589 115.891 192.169 116.162 192.169 116.703V116.829C192.169 116.997 192.211 117.132 192.295 117.235C192.388 117.338 192.551 117.445 192.785 117.557L194.101 118.173C194.894 118.546 195.291 119.092 195.291 119.811V120.119C195.281 120.763 195.085 121.248 194.703 121.575C194.329 121.892 193.737 122.051 192.925 122.051C192.505 122.051 191.903 121.953 191.119 121.757L191.175 120.693C191.875 120.898 192.449 121.001 192.897 121.001C193.354 121.001 193.671 120.94 193.849 120.819C194.026 120.688 194.115 120.478 194.115 120.189V120.049C194.115 119.825 194.068 119.648 193.975 119.517C193.891 119.386 193.746 119.274 193.541 119.181L192.183 118.579C191.772 118.392 191.469 118.168 191.273 117.907C191.086 117.646 190.993 117.342 190.993 116.997V116.801C191.011 116.166 191.207 115.69 191.581 115.373C191.963 115.046 192.561 114.883 193.373 114.883ZM198.998 114.883C199.782 114.883 200.38 115.098 200.79 115.527C201.201 115.956 201.406 116.577 201.406 117.389V118.831H197.808V119.657C197.808 120.133 197.92 120.478 198.144 120.693C198.378 120.898 198.742 121.001 199.236 121.001C199.722 121.001 200.328 120.926 201.056 120.777L201.084 121.813C200.216 121.972 199.596 122.051 199.222 122.051C198.298 122.051 197.631 121.85 197.22 121.449C196.819 121.048 196.618 120.427 196.618 119.587V117.389C196.618 116.577 196.814 115.956 197.206 115.527C197.608 115.098 198.205 114.883 198.998 114.883ZM198.998 115.877C198.634 115.877 198.345 115.994 198.13 116.227C197.916 116.451 197.808 116.778 197.808 117.207V117.879H200.216V117.249C200.216 116.801 200.104 116.46 199.88 116.227C199.666 115.994 199.372 115.877 198.998 115.877ZM206.936 115.051H208.756V116.031H206.936V120.035C206.936 120.39 207.006 120.646 207.146 120.805C207.295 120.954 207.524 121.029 207.832 121.029C208.224 121.029 208.606 120.982 208.98 120.889L209.008 121.883C208.597 121.995 208.224 122.051 207.888 122.051C207.141 122.051 206.595 121.888 206.25 121.561C205.914 121.225 205.746 120.684 205.746 119.937V116.031H204.766V115.051H205.746L205.97 113.231H206.936V115.051ZM212.59 114.883C213.421 114.883 214.037 115.107 214.438 115.555C214.849 115.994 215.054 116.619 215.054 117.431V119.503C215.054 120.315 214.849 120.945 214.438 121.393C214.037 121.832 213.421 122.051 212.59 122.051C211.759 122.051 211.139 121.832 210.728 121.393C210.327 120.945 210.126 120.315 210.126 119.503V117.431C210.126 116.619 210.327 115.994 210.728 115.555C211.139 115.107 211.759 114.883 212.59 114.883ZM212.59 115.877C212.189 115.877 211.876 116.003 211.652 116.255C211.428 116.507 211.316 116.866 211.316 117.333V119.601C211.316 120.068 211.428 120.427 211.652 120.679C211.876 120.931 212.189 121.057 212.59 121.057C212.991 121.057 213.304 120.931 213.528 120.679C213.752 120.427 213.864 120.068 213.864 119.601V117.319C213.864 116.852 213.752 116.498 213.528 116.255C213.304 116.003 212.991 115.877 212.59 115.877ZM220.785 115.051H222.605V116.031H220.785V120.035C220.785 120.39 220.855 120.646 220.995 120.805C221.145 120.954 221.373 121.029 221.681 121.029C222.073 121.029 222.456 120.982 222.829 120.889L222.857 121.883C222.447 121.995 222.073 122.051 221.737 122.051C220.991 122.051 220.445 121.888 220.099 121.561C219.763 121.225 219.595 120.684 219.595 119.937V116.031H218.615V115.051H219.595L219.819 113.231H220.785V115.051ZM225.306 115.961C225.819 115.242 226.416 114.883 227.098 114.883C227.695 114.883 228.152 115.088 228.47 115.499C228.796 115.9 228.96 116.474 228.96 117.221V121.883H227.77V117.389C227.77 116.456 227.466 115.989 226.86 115.989C226.589 115.989 226.314 116.092 226.034 116.297C225.754 116.502 225.511 116.782 225.306 117.137V121.883H224.116V112.321H225.306V115.961ZM233.096 114.883C233.88 114.883 234.477 115.098 234.888 115.527C235.299 115.956 235.504 116.577 235.504 117.389V118.831H231.906V119.657C231.906 120.133 232.018 120.478 232.242 120.693C232.475 120.898 232.839 121.001 233.334 121.001C233.819 121.001 234.426 120.926 235.154 120.777L235.182 121.813C234.314 121.972 233.693 122.051 233.32 122.051C232.396 122.051 231.729 121.85 231.318 121.449C230.917 121.048 230.716 120.427 230.716 119.587V117.389C230.716 116.577 230.912 115.956 231.304 115.527C231.705 115.098 232.303 114.883 233.096 114.883ZM233.096 115.877C232.732 115.877 232.443 115.994 232.228 116.227C232.013 116.451 231.906 116.778 231.906 117.207V117.879H234.314V117.249C234.314 116.801 234.202 116.46 233.978 116.227C233.763 115.994 233.469 115.877 233.096 115.877ZM241.719 114.883C242.522 114.883 243.105 115.065 243.469 115.429C243.843 115.784 244.029 116.353 244.029 117.137V121.883H242.895V120.791C242.354 121.631 241.743 122.051 241.061 122.051C240.52 122.051 240.086 121.864 239.759 121.491C239.442 121.118 239.283 120.609 239.283 119.965V119.573C239.283 119.013 239.475 118.551 239.857 118.187C240.24 117.814 240.753 117.627 241.397 117.627C241.752 117.627 242.233 117.688 242.839 117.809V117.039C242.839 116.638 242.746 116.348 242.559 116.171C242.382 115.994 242.102 115.905 241.719 115.905C241.271 115.905 240.641 115.975 239.829 116.115V115.093C240.707 114.953 241.337 114.883 241.719 114.883ZM241.691 118.551C241.299 118.551 241.001 118.654 240.795 118.859C240.59 119.064 240.487 119.354 240.487 119.727V119.881C240.487 120.226 240.567 120.497 240.725 120.693C240.884 120.889 241.085 120.987 241.327 120.987C241.579 120.987 241.836 120.88 242.097 120.665C242.368 120.441 242.615 120.128 242.839 119.727V118.649C242.485 118.584 242.102 118.551 241.691 118.551ZM248.316 114.883C248.736 114.883 249.212 114.944 249.744 115.065L249.716 116.115C249.175 115.994 248.708 115.933 248.316 115.933C247.878 115.933 247.542 116.054 247.308 116.297C247.084 116.54 246.972 116.885 246.972 117.333V119.587C246.972 120.054 247.089 120.408 247.322 120.651C247.565 120.884 247.896 121.001 248.316 121.001C248.578 121.001 248.806 120.987 249.002 120.959C249.198 120.931 249.436 120.884 249.716 120.819L249.744 121.869C249.175 121.99 248.694 122.051 248.302 122.051C246.622 122.051 245.782 121.202 245.782 119.503V117.431C245.782 115.732 246.627 114.883 248.316 114.883ZM252.914 115.051H254.734V116.031H252.914V120.035C252.914 120.39 252.984 120.646 253.124 120.805C253.274 120.954 253.502 121.029 253.81 121.029C254.202 121.029 254.585 120.982 254.958 120.889L254.986 121.883C254.576 121.995 254.202 122.051 253.866 122.051C253.12 122.051 252.574 121.888 252.228 121.561C251.892 121.225 251.724 120.684 251.724 119.937V116.031H250.744V115.051H251.724L251.948 113.231H252.914V115.051ZM261.005 121.883H259.885V120.903C259.633 121.276 259.353 121.561 259.045 121.757C258.737 121.953 258.41 122.051 258.065 122.051C257.495 122.051 257.047 121.855 256.721 121.463C256.403 121.062 256.245 120.478 256.245 119.713V115.051H257.435V119.503C257.435 119.998 257.509 120.362 257.659 120.595C257.817 120.828 258.032 120.945 258.303 120.945C258.555 120.945 258.816 120.847 259.087 120.651C259.367 120.446 259.609 120.166 259.815 119.811V115.051H261.005V121.883ZM265.057 114.883C265.86 114.883 266.443 115.065 266.807 115.429C267.181 115.784 267.367 116.353 267.367 117.137V121.883H266.233V120.791C265.692 121.631 265.081 122.051 264.399 122.051C263.858 122.051 263.424 121.864 263.097 121.491C262.78 121.118 262.621 120.609 262.621 119.965V119.573C262.621 119.013 262.813 118.551 263.195 118.187C263.578 117.814 264.091 117.627 264.735 117.627C265.09 117.627 265.571 117.688 266.177 117.809V117.039C266.177 116.638 266.084 116.348 265.897 116.171C265.72 115.994 265.44 115.905 265.057 115.905C264.609 115.905 263.979 115.975 263.167 116.115V115.093C264.045 114.953 264.675 114.883 265.057 114.883ZM265.029 118.551C264.637 118.551 264.339 118.654 264.133 118.859C263.928 119.064 263.825 119.354 263.825 119.727V119.881C263.825 120.226 263.905 120.497 264.063 120.693C264.222 120.889 264.423 120.987 264.665 120.987C264.917 120.987 265.174 120.88 265.435 120.665C265.706 120.441 265.953 120.128 266.177 119.727V118.649C265.823 118.584 265.44 118.551 265.029 118.551ZM270.45 112.321V121.883H269.26V112.321H270.45ZM277.244 114.883C278.075 114.883 278.691 115.107 279.092 115.555C279.503 115.994 279.708 116.619 279.708 117.431V119.503C279.708 120.315 279.503 120.945 279.092 121.393C278.691 121.832 278.075 122.051 277.244 122.051C276.414 122.051 275.793 121.832 275.382 121.393C274.981 120.945 274.78 120.315 274.78 119.503V117.431C274.78 116.619 274.981 115.994 275.382 115.555C275.793 115.107 276.414 114.883 277.244 114.883ZM277.244 115.877C276.843 115.877 276.53 116.003 276.306 116.255C276.082 116.507 275.97 116.866 275.97 117.333V119.601C275.97 120.068 276.082 120.427 276.306 120.679C276.53 120.931 276.843 121.057 277.244 121.057C277.646 121.057 277.958 120.931 278.182 120.679C278.406 120.427 278.518 120.068 278.518 119.601V117.319C278.518 116.852 278.406 116.498 278.182 116.255C277.958 116.003 277.646 115.877 277.244 115.877ZM286.284 121.883H285.164V120.903C284.912 121.276 284.632 121.561 284.324 121.757C284.016 121.953 283.689 122.051 283.344 122.051C282.775 122.051 282.327 121.855 282 121.463C281.683 121.062 281.524 120.478 281.524 119.713V115.051H282.714V119.503C282.714 119.998 282.789 120.362 282.938 120.595C283.097 120.828 283.311 120.945 283.582 120.945C283.834 120.945 284.095 120.847 284.366 120.651C284.646 120.446 284.889 120.166 285.094 119.811V115.051H286.284V121.883ZM289.651 115.051H291.471V116.031H289.651V120.035C289.651 120.39 289.721 120.646 289.861 120.805C290.01 120.954 290.239 121.029 290.547 121.029C290.939 121.029 291.321 120.982 291.695 120.889L291.723 121.883C291.312 121.995 290.939 122.051 290.603 122.051C289.856 122.051 289.31 121.888 288.965 121.561C288.629 121.225 288.461 120.684 288.461 119.937V116.031H287.481V115.051H288.461L288.685 113.231H289.651V115.051ZM297.685 121.883H296.551V120.777C295.991 121.626 295.352 122.051 294.633 122.051C294.054 122.051 293.611 121.855 293.303 121.463C292.995 121.062 292.841 120.478 292.841 119.713V117.221C292.841 116.484 293.009 115.91 293.345 115.499C293.69 115.088 294.18 114.883 294.815 114.883C295.086 114.883 295.37 114.953 295.669 115.093C295.968 115.224 296.243 115.387 296.495 115.583V112.321H297.685V121.883ZM295.081 115.947C294.745 115.947 294.484 116.068 294.297 116.311C294.12 116.544 294.031 116.904 294.031 117.389V119.559C294.031 120.511 294.325 120.987 294.913 120.987C295.193 120.987 295.468 120.88 295.739 120.665C296.019 120.441 296.271 120.128 296.495 119.727V116.647C296.299 116.442 296.066 116.274 295.795 116.143C295.534 116.012 295.296 115.947 295.081 115.947ZM301.963 114.883C302.794 114.883 303.41 115.107 303.811 115.555C304.222 115.994 304.427 116.619 304.427 117.431V119.503C304.427 120.315 304.222 120.945 303.811 121.393C303.41 121.832 302.794 122.051 301.963 122.051C301.133 122.051 300.512 121.832 300.101 121.393C299.7 120.945 299.499 120.315 299.499 119.503V117.431C299.499 116.619 299.7 115.994 300.101 115.555C300.512 115.107 301.133 114.883 301.963 114.883ZM301.963 115.877C301.562 115.877 301.249 116.003 301.025 116.255C300.801 116.507 300.689 116.866 300.689 117.333V119.601C300.689 120.068 300.801 120.427 301.025 120.679C301.249 120.931 301.562 121.057 301.963 121.057C302.365 121.057 302.677 120.931 302.901 120.679C303.125 120.427 303.237 120.068 303.237 119.601V117.319C303.237 116.852 303.125 116.498 302.901 116.255C302.677 116.003 302.365 115.877 301.963 115.877ZM308.567 114.883C309.397 114.883 310.013 115.107 310.415 115.555C310.825 115.994 311.031 116.619 311.031 117.431V119.503C311.031 120.315 310.825 120.945 310.415 121.393C310.013 121.832 309.397 122.051 308.567 122.051C307.736 122.051 307.115 121.832 306.705 121.393C306.303 120.945 306.103 120.315 306.103 119.503V117.431C306.103 116.619 306.303 115.994 306.705 115.555C307.115 115.107 307.736 114.883 308.567 114.883ZM308.567 115.877C308.165 115.877 307.853 116.003 307.629 116.255C307.405 116.507 307.293 116.866 307.293 117.333V119.601C307.293 120.068 307.405 120.427 307.629 120.679C307.853 120.931 308.165 121.057 308.567 121.057C308.968 121.057 309.281 120.931 309.505 120.679C309.729 120.427 309.841 120.068 309.841 119.601V117.319C309.841 116.852 309.729 116.498 309.505 116.255C309.281 116.003 308.968 115.877 308.567 115.877ZM315.828 114.883C315.959 114.883 316.062 114.892 316.136 114.911V116.255C315.996 116.227 315.814 116.213 315.59 116.213C314.937 116.213 314.419 116.54 314.036 117.193V121.883H312.846V115.051H313.966V116.073C314.218 115.69 314.498 115.396 314.806 115.191C315.124 114.986 315.464 114.883 315.828 114.883ZM142.131 127.713V128.791H138.491V131.689H141.235V132.753H138.491V136.883H137.301V127.713H142.131ZM144.922 129.883C145.725 129.883 146.308 130.065 146.672 130.429C147.046 130.784 147.232 131.353 147.232 132.137V136.883H146.098V135.791C145.557 136.631 144.946 137.051 144.264 137.051C143.723 137.051 143.289 136.864 142.962 136.491C142.645 136.118 142.486 135.609 142.486 134.965V134.573C142.486 134.013 142.678 133.551 143.06 133.187C143.443 132.814 143.956 132.627 144.6 132.627C144.955 132.627 145.436 132.688 146.042 132.809V132.039C146.042 131.638 145.949 131.348 145.762 131.171C145.585 130.994 145.305 130.905 144.922 130.905C144.474 130.905 143.844 130.975 143.032 131.115V130.093C143.91 129.953 144.54 129.883 144.922 129.883ZM144.894 133.551C144.502 133.551 144.204 133.654 143.998 133.859C143.793 134.064 143.69 134.354 143.69 134.727V134.881C143.69 135.226 143.77 135.497 143.928 135.693C144.087 135.889 144.288 135.987 144.53 135.987C144.782 135.987 145.039 135.88 145.3 135.665C145.571 135.441 145.818 135.128 146.042 134.727V133.649C145.688 133.584 145.305 133.551 144.894 133.551ZM150.316 130.961C150.829 130.242 151.426 129.883 152.108 129.883C152.705 129.883 153.162 130.088 153.48 130.499C153.806 130.9 153.97 131.474 153.97 132.221V136.883H152.78V132.389C152.78 131.456 152.476 130.989 151.87 130.989C151.599 130.989 151.324 131.092 151.044 131.297C150.764 131.502 150.521 131.782 150.316 132.137V136.883H149.126V127.321H150.316V130.961ZM158.848 129.883C158.978 129.883 159.081 129.892 159.156 129.911V131.255C159.016 131.227 158.834 131.213 158.61 131.213C157.956 131.213 157.438 131.54 157.056 132.193V136.883H155.866V130.051H156.986V131.073C157.238 130.69 157.518 130.396 157.826 130.191C158.143 129.986 158.484 129.883 158.848 129.883ZM162.563 129.883C163.347 129.883 163.944 130.098 164.355 130.527C164.765 130.956 164.971 131.577 164.971 132.389V133.831H161.373V134.657C161.373 135.133 161.485 135.478 161.709 135.693C161.942 135.898 162.306 136.001 162.801 136.001C163.286 136.001 163.893 135.926 164.621 135.777L164.649 136.813C163.781 136.972 163.16 137.051 162.787 137.051C161.863 137.051 161.195 136.85 160.785 136.449C160.383 136.048 160.183 135.427 160.183 134.587V132.389C160.183 131.577 160.379 130.956 160.771 130.527C161.172 130.098 161.769 129.883 162.563 129.883ZM162.563 130.877C162.199 130.877 161.909 130.994 161.695 131.227C161.48 131.451 161.373 131.778 161.373 132.207V132.879H163.781V132.249C163.781 131.801 163.669 131.46 163.445 131.227C163.23 130.994 162.936 130.877 162.563 130.877ZM169.566 129.883C170.164 129.883 170.621 130.088 170.938 130.499C171.265 130.9 171.428 131.474 171.428 132.221V136.883H170.238V132.389C170.238 131.456 169.935 130.989 169.328 130.989C169.058 130.989 168.782 131.092 168.502 131.297C168.222 131.502 167.98 131.782 167.774 132.137V136.883H166.584V130.051H167.704V131.073C167.956 130.69 168.236 130.396 168.544 130.191C168.862 129.986 169.202 129.883 169.566 129.883ZM174.583 130.961C175.096 130.242 175.694 129.883 176.375 129.883C176.972 129.883 177.43 130.088 177.747 130.499C178.074 130.9 178.237 131.474 178.237 132.221V136.883H177.047V132.389C177.047 131.456 176.744 130.989 176.137 130.989C175.866 130.989 175.591 131.092 175.311 131.297C175.031 131.502 174.788 131.782 174.583 132.137V136.883H173.393V127.321H174.583V130.961ZM182.373 129.883C183.157 129.883 183.755 130.098 184.165 130.527C184.576 130.956 184.781 131.577 184.781 132.389V133.831H181.183V134.657C181.183 135.133 181.295 135.478 181.519 135.693C181.753 135.898 182.117 136.001 182.611 136.001C183.097 136.001 183.703 135.926 184.431 135.777L184.459 136.813C183.591 136.972 182.971 137.051 182.597 137.051C181.673 137.051 181.006 136.85 180.595 136.449C180.194 136.048 179.993 135.427 179.993 134.587V132.389C179.993 131.577 180.189 130.956 180.581 130.527C180.983 130.098 181.58 129.883 182.373 129.883ZM182.373 130.877C182.009 130.877 181.72 130.994 181.505 131.227C181.291 131.451 181.183 131.778 181.183 132.207V132.879H183.591V132.249C183.591 131.801 183.479 131.46 183.255 131.227C183.041 130.994 182.747 130.877 182.373 130.877ZM187.585 130.051V136.883H186.395V130.051H187.585ZM186.983 127.293C187.235 127.293 187.426 127.349 187.557 127.461C187.697 127.573 187.767 127.732 187.767 127.937V128.343C187.767 128.548 187.697 128.707 187.557 128.819C187.426 128.922 187.235 128.973 186.983 128.973C186.74 128.973 186.549 128.922 186.409 128.819C186.278 128.707 186.213 128.548 186.213 128.343V127.937C186.213 127.732 186.278 127.573 186.409 127.461C186.549 127.349 186.74 127.293 186.983 127.293ZM190.94 130.051H192.76V131.031H190.94V135.035C190.94 135.39 191.01 135.646 191.15 135.805C191.299 135.954 191.528 136.029 191.836 136.029C192.228 136.029 192.61 135.982 192.984 135.889L193.012 136.883C192.601 136.995 192.228 137.051 191.892 137.051C191.145 137.051 190.599 136.888 190.254 136.561C189.918 136.225 189.75 135.684 189.75 134.937V131.031H188.77V130.051H189.75L189.974 128.231H190.94V130.051ZM198.186 130.051H200.006V131.031H198.186V135.035C198.186 135.39 198.256 135.646 198.396 135.805C198.545 135.954 198.774 136.029 199.082 136.029C199.474 136.029 199.856 135.982 200.23 135.889L200.258 136.883C199.847 136.995 199.474 137.051 199.138 137.051C198.391 137.051 197.845 136.888 197.5 136.561C197.164 136.225 196.996 135.684 196.996 134.937V131.031H196.016V130.051H196.996L197.22 128.231H198.186V130.051ZM203.756 129.883C204.54 129.883 205.137 130.098 205.548 130.527C205.959 130.956 206.164 131.577 206.164 132.389V133.831H202.566V134.657C202.566 135.133 202.678 135.478 202.902 135.693C203.135 135.898 203.499 136.001 203.994 136.001C204.479 136.001 205.086 135.926 205.814 135.777L205.842 136.813C204.974 136.972 204.353 137.051 203.98 137.051C203.056 137.051 202.389 136.85 201.978 136.449C201.577 136.048 201.376 135.427 201.376 134.587V132.389C201.376 131.577 201.572 130.956 201.964 130.527C202.365 130.098 202.963 129.883 203.756 129.883ZM203.756 130.877C203.392 130.877 203.103 130.994 202.888 131.227C202.673 131.451 202.566 131.778 202.566 132.207V132.879H204.974V132.249C204.974 131.801 204.862 131.46 204.638 131.227C204.423 130.994 204.129 130.877 203.756 130.877ZM214.344 129.883C214.941 129.883 215.399 130.088 215.716 130.499C216.033 130.9 216.192 131.474 216.192 132.221V136.883H215.002V132.389C215.002 131.456 214.703 130.989 214.106 130.989C213.845 130.989 213.574 131.092 213.294 131.297C213.023 131.502 212.785 131.782 212.58 132.137V136.883H211.39V132.389C211.39 131.456 211.091 130.989 210.494 130.989C210.233 130.989 209.962 131.092 209.682 131.297C209.411 131.502 209.173 131.782 208.968 132.137V136.883H207.778V130.051H208.898V131.073C209.141 130.69 209.421 130.396 209.738 130.191C210.055 129.986 210.387 129.883 210.732 129.883C211.161 129.883 211.521 129.995 211.81 130.219C212.099 130.434 212.309 130.751 212.44 131.171C212.692 130.751 212.981 130.434 213.308 130.219C213.635 129.995 213.98 129.883 214.344 129.883ZM221.123 129.883C221.711 129.883 222.168 130.084 222.495 130.485C222.821 130.886 222.985 131.465 222.985 132.221V134.713C222.985 135.441 222.793 136.015 222.411 136.435C222.037 136.846 221.529 137.051 220.885 137.051C220.642 137.051 220.381 137 220.101 136.897C219.83 136.804 219.578 136.692 219.345 136.561V139.473H218.155V130.051H219.275V131.045C219.788 130.27 220.404 129.883 221.123 129.883ZM220.885 130.947C220.614 130.947 220.339 131.05 220.059 131.255C219.788 131.451 219.55 131.722 219.345 132.067V135.497C219.541 135.656 219.755 135.782 219.989 135.875C220.231 135.959 220.451 136.001 220.647 136.001C221.412 136.001 221.795 135.516 221.795 134.545V132.389C221.795 131.428 221.491 130.947 220.885 130.947ZM227.781 129.883C227.912 129.883 228.015 129.892 228.089 129.911V131.255C227.949 131.227 227.767 131.213 227.543 131.213C226.89 131.213 226.372 131.54 225.989 132.193V136.883H224.799V130.051H225.919V131.073C226.171 130.69 226.451 130.396 226.759 130.191C227.077 129.986 227.417 129.883 227.781 129.883ZM231.233 129.883C232.036 129.883 232.619 130.065 232.983 130.429C233.356 130.784 233.543 131.353 233.543 132.137V136.883H232.409V135.791C231.868 136.631 231.256 137.051 230.575 137.051C230.034 137.051 229.6 136.864 229.273 136.491C228.956 136.118 228.797 135.609 228.797 134.965V134.573C228.797 134.013 228.988 133.551 229.371 133.187C229.754 132.814 230.267 132.627 230.911 132.627C231.266 132.627 231.746 132.688 232.353 132.809V132.039C232.353 131.638 232.26 131.348 232.073 131.171C231.896 130.994 231.616 130.905 231.233 130.905C230.785 130.905 230.155 130.975 229.343 131.115V130.093C230.22 129.953 230.85 129.883 231.233 129.883ZM231.205 133.551C230.813 133.551 230.514 133.654 230.309 133.859C230.104 134.064 230.001 134.354 230.001 134.727V134.881C230.001 135.226 230.08 135.497 230.239 135.693C230.398 135.889 230.598 135.987 230.841 135.987C231.093 135.987 231.35 135.88 231.611 135.665C231.882 135.441 232.129 135.128 232.353 134.727V133.649C231.998 133.584 231.616 133.551 231.205 133.551ZM236.836 130.051H238.656V131.031H236.836V135.035C236.836 135.39 236.906 135.646 237.046 135.805C237.195 135.954 237.424 136.029 237.732 136.029C238.124 136.029 238.507 135.982 238.88 135.889L238.908 136.883C238.497 136.995 238.124 137.051 237.788 137.051C237.041 137.051 236.495 136.888 236.15 136.561C235.814 136.225 235.646 135.684 235.646 134.937V131.031H234.666V130.051H235.646L235.87 128.231H236.836V130.051ZM244.927 136.883H243.807V135.903C243.555 136.276 243.275 136.561 242.967 136.757C242.659 136.953 242.332 137.051 241.987 137.051C241.417 137.051 240.969 136.855 240.643 136.463C240.325 136.062 240.167 135.478 240.167 134.713V130.051H241.357V134.503C241.357 134.998 241.431 135.362 241.581 135.595C241.739 135.828 241.954 135.945 242.225 135.945C242.477 135.945 242.738 135.847 243.009 135.651C243.289 135.446 243.531 135.166 243.737 134.811V130.051H244.927V136.883ZM249.875 129.883C250.006 129.883 250.108 129.892 250.183 129.911V131.255C250.043 131.227 249.861 131.213 249.637 131.213C248.984 131.213 248.466 131.54 248.083 132.193V136.883H246.893V130.051H248.013V131.073C248.265 130.69 248.545 130.396 248.853 130.191C249.17 129.986 249.511 129.883 249.875 129.883ZM253.59 129.883C254.374 129.883 254.971 130.098 255.382 130.527C255.793 130.956 255.998 131.577 255.998 132.389V133.831H252.4V134.657C252.4 135.133 252.512 135.478 252.736 135.693C252.969 135.898 253.333 136.001 253.828 136.001C254.313 136.001 254.92 135.926 255.648 135.777L255.676 136.813C254.808 136.972 254.187 137.051 253.814 137.051C252.89 137.051 252.223 136.85 251.812 136.449C251.411 136.048 251.21 135.427 251.21 134.587V132.389C251.21 131.577 251.406 130.956 251.798 130.527C252.199 130.098 252.797 129.883 253.59 129.883ZM253.59 130.877C253.226 130.877 252.937 130.994 252.722 131.227C252.507 131.451 252.4 131.778 252.4 132.207V132.879H254.808V132.249C254.808 131.801 254.696 131.46 254.472 131.227C254.257 130.994 253.963 130.877 253.59 130.877ZM258.186 135.343C258.718 135.343 258.984 135.562 258.984 136.001V136.407C258.984 136.612 258.914 136.771 258.774 136.883C258.643 136.995 258.447 137.051 258.186 137.051C257.934 137.051 257.738 136.995 257.598 136.883C257.467 136.771 257.402 136.612 257.402 136.407V136.001C257.402 135.786 257.467 135.623 257.598 135.511C257.738 135.399 257.934 135.343 258.186 135.343Z" fill="black"/>
<path d="M145.007 173.992C146.895 173.992 148.287 174.36 149.183 175.096C150.079 175.832 150.527 176.864 150.527 178.192V178.792C150.527 179.72 150.271 180.544 149.759 181.264C149.247 181.968 148.511 182.464 147.551 182.752L151.631 190H149.351L145.535 183.184C145.407 183.2 145.151 183.208 144.767 183.208C144.127 183.208 143.495 183.184 142.871 183.136V190H140.831V174.088C142.623 174.024 144.015 173.992 145.007 173.992ZM144.959 175.72C144.431 175.72 143.735 175.736 142.871 175.768V181.432C143.735 181.512 144.455 181.552 145.031 181.552C147.335 181.552 148.487 180.616 148.487 178.744V178.264C148.487 177.4 148.207 176.76 147.647 176.344C147.087 175.928 146.191 175.72 144.959 175.72ZM157.084 178C158.46 178 159.46 178.312 160.084 178.936C160.724 179.544 161.044 180.52 161.044 181.864V190H159.1V188.128C158.172 189.568 157.124 190.288 155.956 190.288C155.028 190.288 154.284 189.968 153.724 189.328C153.18 188.688 152.908 187.816 152.908 186.712V186.04C152.908 185.08 153.236 184.288 153.892 183.664C154.548 183.024 155.428 182.704 156.532 182.704C157.14 182.704 157.964 182.808 159.004 183.016V181.696C159.004 181.008 158.844 180.512 158.524 180.208C158.22 179.904 157.74 179.752 157.084 179.752C156.316 179.752 155.236 179.872 153.844 180.112V178.36C155.348 178.12 156.428 178 157.084 178ZM157.036 184.288C156.364 184.288 155.852 184.464 155.5 184.816C155.148 185.168 154.972 185.664 154.972 186.304V186.568C154.972 187.16 155.108 187.624 155.38 187.96C155.652 188.296 155.996 188.464 156.412 188.464C156.844 188.464 157.284 188.28 157.732 187.912C158.196 187.528 158.62 186.992 159.004 186.304V184.456C158.396 184.344 157.74 184.288 157.036 184.288ZM169.401 178C170.425 178 171.209 178.352 171.753 179.056C172.313 179.744 172.593 180.728 172.593 182.008V190H170.553V182.296C170.553 180.696 170.033 179.896 168.993 179.896C168.529 179.896 168.057 180.072 167.577 180.424C167.097 180.776 166.681 181.256 166.329 181.864V190H164.289V178.288H166.209V180.04C166.641 179.384 167.121 178.88 167.649 178.528C168.193 178.176 168.777 178 169.401 178ZM184.025 190H182.081V188.104C181.121 189.56 180.025 190.288 178.793 190.288C177.801 190.288 177.041 189.952 176.513 189.28C175.985 188.592 175.721 187.592 175.721 186.28V182.008C175.721 180.744 176.009 179.76 176.585 179.056C177.177 178.352 178.017 178 179.105 178C179.569 178 180.057 178.12 180.569 178.36C181.081 178.584 181.553 178.864 181.985 179.2V173.608H184.025V190ZM179.561 179.824C178.985 179.824 178.537 180.032 178.217 180.448C177.913 180.848 177.761 181.464 177.761 182.296V186.016C177.761 187.648 178.265 188.464 179.273 188.464C179.753 188.464 180.225 188.28 180.689 187.912C181.169 187.528 181.601 186.992 181.985 186.304V181.024C181.649 180.672 181.249 180.384 180.785 180.16C180.337 179.936 179.929 179.824 179.561 179.824ZM191.359 178C192.783 178 193.839 178.384 194.527 179.152C195.231 179.904 195.583 180.976 195.583 182.368V185.92C195.583 187.312 195.231 188.392 194.527 189.16C193.839 189.912 192.783 190.288 191.359 190.288C189.935 190.288 188.871 189.912 188.167 189.16C187.479 188.392 187.135 187.312 187.135 185.92V182.368C187.135 180.976 187.479 179.904 188.167 179.152C188.871 178.384 189.935 178 191.359 178ZM191.359 179.704C190.671 179.704 190.135 179.92 189.751 180.352C189.367 180.784 189.175 181.4 189.175 182.2V186.088C189.175 186.888 189.367 187.504 189.751 187.936C190.135 188.368 190.671 188.584 191.359 188.584C192.047 188.584 192.583 188.368 192.967 187.936C193.351 187.504 193.543 186.888 193.543 186.088V182.176C193.543 181.376 193.351 180.768 192.967 180.352C192.583 179.92 192.047 179.704 191.359 179.704ZM209.952 178C210.976 178 211.76 178.352 212.304 179.056C212.848 179.744 213.12 180.728 213.12 182.008V190H211.08V182.296C211.08 180.696 210.568 179.896 209.544 179.896C209.096 179.896 208.632 180.072 208.152 180.424C207.688 180.776 207.28 181.256 206.928 181.864V190H204.888V182.296C204.888 180.696 204.376 179.896 203.352 179.896C202.904 179.896 202.44 180.072 201.96 180.424C201.496 180.776 201.088 181.256 200.736 181.864V190H198.696V178.288H200.616V180.04C201.032 179.384 201.512 178.88 202.056 178.528C202.6 178.176 203.168 178 203.76 178C204.496 178 205.112 178.192 205.608 178.576C206.104 178.944 206.464 179.488 206.688 180.208C207.12 179.488 207.616 178.944 208.176 178.576C208.736 178.192 209.328 178 209.952 178ZM229.197 174.28V176.128H222.957V181.096H227.661V182.92H222.957V190H220.917V174.28H229.197ZM233.983 178C235.359 178 236.359 178.312 236.983 178.936C237.623 179.544 237.943 180.52 237.943 181.864V190H235.999V188.128C235.071 189.568 234.023 190.288 232.855 190.288C231.927 190.288 231.183 189.968 230.623 189.328C230.079 188.688 229.807 187.816 229.807 186.712V186.04C229.807 185.08 230.135 184.288 230.791 183.664C231.447 183.024 232.327 182.704 233.431 182.704C234.039 182.704 234.863 182.808 235.903 183.016V181.696C235.903 181.008 235.743 180.512 235.423 180.208C235.119 179.904 234.639 179.752 233.983 179.752C233.215 179.752 232.135 179.872 230.743 180.112V178.36C232.247 178.12 233.327 178 233.983 178ZM233.935 184.288C233.263 184.288 232.751 184.464 232.399 184.816C232.047 185.168 231.871 185.664 231.871 186.304V186.568C231.871 187.16 232.007 187.624 232.279 187.96C232.551 188.296 232.895 188.464 233.311 188.464C233.743 188.464 234.183 188.28 234.631 187.912C235.095 187.528 235.519 186.992 235.903 186.304V184.456C235.295 184.344 234.639 184.288 233.935 184.288ZM245.292 178C246.012 178 246.828 178.104 247.74 178.312L247.692 180.112C246.764 179.904 245.964 179.8 245.292 179.8C244.54 179.8 243.964 180.008 243.564 180.424C243.18 180.84 242.988 181.432 242.988 182.2V186.064C242.988 186.864 243.188 187.472 243.588 187.888C244.004 188.288 244.572 188.488 245.292 188.488C245.74 188.488 246.132 188.464 246.468 188.416C246.804 188.368 247.212 188.288 247.692 188.176L247.74 189.976C246.764 190.184 245.94 190.288 245.268 190.288C242.388 190.288 240.948 188.832 240.948 185.92V182.368C240.948 179.456 242.396 178 245.292 178ZM252.939 178.288H256.059V179.968H252.939V186.832C252.939 187.44 253.059 187.88 253.299 188.152C253.555 188.408 253.947 188.536 254.475 188.536C255.147 188.536 255.803 188.456 256.443 188.296L256.491 190C255.787 190.192 255.147 190.288 254.571 190.288C253.291 190.288 252.355 190.008 251.763 189.448C251.187 188.872 250.899 187.944 250.899 186.664V179.968H249.219V178.288H250.899L251.283 175.168H252.939V178.288Z" fill="white"/>
</g>
<defs>
<filter id="filter0_d" x="8" y="-3.14516" width="372" height="250.548" filterUnits="userSpaceOnUse" color-interpolation-filters="sRGB">
<feFlood flood-opacity="0" result="BackgroundImageFix"/>
<feColorMatrix in="SourceAlpha" type="matrix" values="0 0 0 0 0 0 0 0 0 0 0 0 0 0 0 0 0 0 127 0"/>
<feOffset dy="4"/>
<feGaussianBlur stdDeviation="8"/>
<feColorMatrix type="matrix" values="0 0 0 0 0 0 0 0 0 0 0 0 0 0 0 0 0 0 0.25 0"/>
<feBlend mode="normal" in2="BackgroundImageFix" result="effect1_dropShadow"/>
<feBlend mode="normal" in="SourceGraphic" in2="effect1_dropShadow" result="shape"/>
</filter>
<filter id="filter1_d" x="119" y="162" width="159" height="51.5484" filterUnits="userSpaceOnUse" color-interpolation-filters="sRGB">
<feFlood flood-opacity="0" result="BackgroundImageFix"/>
<feColorMatrix in="SourceAlpha" type="matrix" values="0 0 0 0 0 0 0 0 0 0 0 0 0 0 0 0 0 0 127 0"/>
<feOffset dy="4"/>
<feGaussianBlur stdDeviation="2"/>
<feColorMatrix type="matrix" values="0 0 0 0 0 0 0 0 0 0 0 0 0 0 0 0 0 0 0.25 0"/>
<feBlend mode="normal" in2="BackgroundImageFix" result="effect1_dropShadow"/>
<feBlend mode="normal" in="SourceGraphic" in2="effect1_dropShadow" result="shape"/>
</filter>
<linearGradient id="paint0_linear" x1="202.5" y1="19.7823" x2="202.5" y2="50.379" gradientUnits="userSpaceOnUse">
<stop stop-color="white"/>
<stop offset="1" stop-color="white" stop-opacity="0"/>
</linearGradient>
<clipPath id="clip0">
<rect width="400" height="297.701" fill="white"/>
</clipPath>
</defs>
</svg>
