<svg width="388" height="166" viewBox="0 0 388 166" fill="none" xmlns="http://www.w3.org/2000/svg">
<g filter="url(#filter0_d)">
<rect x="24" y="20" width="340" height="117.6" rx="25" fill="white"/>
</g>
<path d="M75.653 98.328C76.069 98.328 76.517 98.3707 76.997 98.456C77.4877 98.5307 77.7757 98.5733 77.861 98.584L77.829 99.784C76.8903 99.6133 76.165 99.528 75.653 99.528C74.9277 99.528 74.405 99.6773 74.085 99.976C73.765 100.275 73.605 100.771 73.605 101.464V106.04C73.605 106.733 73.7597 107.229 74.069 107.528C74.389 107.816 74.917 107.96 75.653 107.96C76.165 107.96 76.8903 107.875 77.829 107.704L77.861 108.936C77.7757 108.947 77.4877 108.989 76.997 109.064C76.517 109.149 76.069 109.192 75.653 109.192C74.4263 109.192 73.5517 108.931 73.029 108.408C72.5063 107.885 72.245 107.069 72.245 105.96V101.56C72.245 100.451 72.5063 99.6347 73.029 99.112C73.5517 98.5893 74.4263 98.328 75.653 98.328ZM81.2144 102.232C81.801 101.411 82.4837 101 83.2624 101C83.945 101 84.4677 101.235 84.8304 101.704C85.2037 102.163 85.3904 102.819 85.3904 103.672V109H84.0304V103.864C84.0304 102.797 83.6837 102.264 82.9904 102.264C82.681 102.264 82.3664 102.381 82.0464 102.616C81.7264 102.851 81.449 103.171 81.2144 103.576V109H79.8544V98.072H81.2144V102.232ZM92.9975 109H91.7175V107.88C91.4295 108.307 91.1095 108.632 90.7575 108.856C90.4055 109.08 90.0322 109.192 89.6375 109.192C88.9868 109.192 88.4748 108.968 88.1015 108.52C87.7388 108.061 87.5575 107.395 87.5575 106.52V101.192H88.9175V106.28C88.9175 106.845 89.0028 107.261 89.1735 107.528C89.3548 107.795 89.6002 107.928 89.9095 107.928C90.1975 107.928 90.4962 107.816 90.8055 107.592C91.1255 107.357 91.4028 107.037 91.6375 106.632V101.192H92.9975V109ZM97.981 101C98.461 101 99.005 101.069 99.613 101.208L99.581 102.408C98.9623 102.269 98.429 102.2 97.981 102.2C97.4797 102.2 97.0957 102.339 96.829 102.616C96.573 102.893 96.445 103.288 96.445 103.8V106.376C96.445 106.909 96.5783 107.315 96.845 107.592C97.1223 107.859 97.501 107.992 97.981 107.992C98.2797 107.992 98.541 107.976 98.765 107.944C98.989 107.912 99.261 107.859 99.581 107.784L99.613 108.984C98.9623 109.123 98.413 109.192 97.965 109.192C96.045 109.192 95.085 108.221 95.085 106.28V103.912C95.085 101.971 96.0503 101 97.981 101ZM102.839 98.072V104.616L105.399 101.192H106.919L104.263 104.616L107.111 109H105.479L102.839 104.808V109H101.479V98.072H102.839ZM116.063 109L112.607 100.152V109H111.263V98.52H113.439L116.831 107.368V98.52H118.175V109H116.063ZM123.151 101C124.1 101 124.804 101.256 125.263 101.768C125.732 102.269 125.967 102.984 125.967 103.912V106.28C125.967 107.208 125.732 107.928 125.263 108.44C124.804 108.941 124.1 109.192 123.151 109.192C122.202 109.192 121.492 108.941 121.023 108.44C120.564 107.928 120.335 107.208 120.335 106.28V103.912C120.335 102.984 120.564 102.269 121.023 101.768C121.492 101.256 122.202 101 123.151 101ZM123.151 102.136C122.692 102.136 122.335 102.28 122.079 102.568C121.823 102.856 121.695 103.267 121.695 103.8V106.392C121.695 106.925 121.823 107.336 122.079 107.624C122.335 107.912 122.692 108.056 123.151 108.056C123.61 108.056 123.967 107.912 124.223 107.624C124.479 107.336 124.607 106.925 124.607 106.392V103.784C124.607 103.251 124.479 102.845 124.223 102.568C123.967 102.28 123.61 102.136 123.151 102.136ZM131.45 101C131.599 101 131.717 101.011 131.802 101.032V102.568C131.642 102.536 131.434 102.52 131.178 102.52C130.431 102.52 129.839 102.893 129.402 103.64V109H128.042V101.192H129.322V102.36C129.61 101.923 129.93 101.587 130.282 101.352C130.645 101.117 131.034 101 131.45 101ZM136.653 101C136.802 101 136.92 101.011 137.005 101.032V102.568C136.845 102.536 136.637 102.52 136.381 102.52C135.634 102.52 135.042 102.893 134.605 103.64V109H133.245V101.192H134.525V102.36C134.813 101.923 135.133 101.587 135.485 101.352C135.848 101.117 136.237 101 136.653 101ZM139.808 101.192V109H138.448V101.192H139.808ZM139.12 98.04C139.408 98.04 139.627 98.104 139.776 98.232C139.936 98.36 140.016 98.5413 140.016 98.776V99.24C140.016 99.4747 139.936 99.656 139.776 99.784C139.627 99.9013 139.408 99.96 139.12 99.96C138.843 99.96 138.624 99.9013 138.464 99.784C138.315 99.656 138.24 99.4747 138.24 99.24V98.776C138.24 98.5413 138.315 98.36 138.464 98.232C138.624 98.104 138.843 98.04 139.12 98.04ZM144.282 101C144.73 101 145.269 101.064 145.898 101.192L145.866 102.344C145.311 102.216 144.805 102.152 144.346 102.152C143.386 102.152 142.906 102.461 142.906 103.08V103.224C142.906 103.416 142.954 103.571 143.05 103.688C143.157 103.805 143.343 103.928 143.61 104.056L145.114 104.76C146.021 105.187 146.474 105.811 146.474 106.632V106.984C146.463 107.72 146.239 108.275 145.802 108.648C145.375 109.011 144.698 109.192 143.77 109.192C143.29 109.192 142.602 109.08 141.706 108.856L141.77 107.64C142.57 107.875 143.226 107.992 143.738 107.992C144.261 107.992 144.623 107.923 144.826 107.784C145.029 107.635 145.13 107.395 145.13 107.064V106.904C145.13 106.648 145.077 106.445 144.97 106.296C144.874 106.147 144.709 106.019 144.474 105.912L142.922 105.224C142.453 105.011 142.106 104.755 141.882 104.456C141.669 104.157 141.562 103.811 141.562 103.416V103.192C141.583 102.467 141.807 101.923 142.234 101.56C142.671 101.187 143.354 101 144.282 101ZM153.762 101C154.242 101 154.786 101.069 155.394 101.208L155.362 102.408C154.744 102.269 154.21 102.2 153.762 102.2C153.261 102.2 152.877 102.339 152.61 102.616C152.354 102.893 152.226 103.288 152.226 103.8V106.376C152.226 106.909 152.36 107.315 152.626 107.592C152.904 107.859 153.282 107.992 153.762 107.992C154.061 107.992 154.322 107.976 154.546 107.944C154.77 107.912 155.042 107.859 155.362 107.784L155.394 108.984C154.744 109.123 154.194 109.192 153.746 109.192C151.826 109.192 150.866 108.221 150.866 106.28V103.912C150.866 101.971 151.832 101 153.762 101ZM159.645 101C160.562 101 161.229 101.208 161.645 101.624C162.071 102.029 162.285 102.68 162.285 103.576V109H160.989V107.752C160.37 108.712 159.671 109.192 158.893 109.192C158.274 109.192 157.778 108.979 157.405 108.552C157.042 108.125 156.861 107.544 156.861 106.808V106.36C156.861 105.72 157.079 105.192 157.517 104.776C157.954 104.349 158.541 104.136 159.277 104.136C159.682 104.136 160.231 104.205 160.925 104.344V103.464C160.925 103.005 160.818 102.675 160.605 102.472C160.402 102.269 160.082 102.168 159.645 102.168C159.133 102.168 158.413 102.248 157.485 102.408V101.24C158.487 101.08 159.207 101 159.645 101ZM159.613 105.192C159.165 105.192 158.823 105.309 158.589 105.544C158.354 105.779 158.237 106.109 158.237 106.536V106.712C158.237 107.107 158.327 107.416 158.509 107.64C158.69 107.864 158.919 107.976 159.197 107.976C159.485 107.976 159.778 107.853 160.077 107.608C160.386 107.352 160.669 106.995 160.925 106.536V105.304C160.519 105.229 160.082 105.192 159.613 105.192ZM167.856 101C168.539 101 169.061 101.235 169.424 101.704C169.797 102.163 169.984 102.819 169.984 103.672V109H168.624V103.864C168.624 102.797 168.277 102.264 167.584 102.264C167.275 102.264 166.96 102.381 166.64 102.616C166.32 102.851 166.043 103.171 165.808 103.576V109H164.448V101.192H165.728V102.36C166.016 101.923 166.336 101.587 166.688 101.352C167.051 101.117 167.44 101 167.856 101ZM176.464 98.072V109H175.104V98.072H176.464ZM180.058 101.192V109H178.698V101.192H180.058ZM179.37 98.04C179.658 98.04 179.877 98.104 180.026 98.232C180.186 98.36 180.266 98.5413 180.266 98.776V99.24C180.266 99.4747 180.186 99.656 180.026 99.784C179.877 99.9013 179.658 99.96 179.37 99.96C179.093 99.96 178.874 99.9013 178.714 99.784C178.565 99.656 178.49 99.4747 178.49 99.24V98.776C178.49 98.5413 178.565 98.36 178.714 98.232C178.874 98.104 179.093 98.04 179.37 98.04ZM183.892 101.192H185.972V102.312H183.892V106.888C183.892 107.293 183.972 107.587 184.132 107.768C184.303 107.939 184.564 108.024 184.916 108.024C185.364 108.024 185.801 107.971 186.228 107.864L186.26 109C185.791 109.128 185.364 109.192 184.98 109.192C184.127 109.192 183.503 109.005 183.108 108.632C182.724 108.248 182.532 107.629 182.532 106.776V102.312H181.412V101.192H182.532L182.788 99.112H183.892V101.192ZM190.258 101C191.154 101 191.837 101.245 192.306 101.736C192.775 102.227 193.01 102.936 193.01 103.864V105.512H188.898V106.456C188.898 107 189.026 107.395 189.282 107.64C189.549 107.875 189.965 107.992 190.53 107.992C191.085 107.992 191.778 107.907 192.61 107.736L192.642 108.92C191.65 109.101 190.941 109.192 190.514 109.192C189.458 109.192 188.695 108.963 188.226 108.504C187.767 108.045 187.538 107.336 187.538 106.376V103.864C187.538 102.936 187.762 102.227 188.21 101.736C188.669 101.245 189.351 101 190.258 101ZM190.258 102.136C189.842 102.136 189.511 102.269 189.266 102.536C189.021 102.792 188.898 103.165 188.898 103.656V104.424H191.65V103.704C191.65 103.192 191.522 102.803 191.266 102.536C191.021 102.269 190.685 102.136 190.258 102.136ZM198.262 101C198.412 101 198.529 101.011 198.614 101.032V102.568C198.454 102.536 198.246 102.52 197.99 102.52C197.244 102.52 196.652 102.893 196.214 103.64V109H194.854V101.192H196.134V102.36C196.422 101.923 196.742 101.587 197.094 101.352C197.457 101.117 197.846 101 198.262 101ZM202.207 101C203.124 101 203.791 101.208 204.207 101.624C204.634 102.029 204.847 102.68 204.847 103.576V109H203.551V107.752C202.932 108.712 202.234 109.192 201.455 109.192C200.836 109.192 200.34 108.979 199.967 108.552C199.604 108.125 199.423 107.544 199.423 106.808V106.36C199.423 105.72 199.642 105.192 200.079 104.776C200.516 104.349 201.103 104.136 201.839 104.136C202.244 104.136 202.794 104.205 203.487 104.344V103.464C203.487 103.005 203.38 102.675 203.167 102.472C202.964 102.269 202.644 102.168 202.207 102.168C201.695 102.168 200.975 102.248 200.047 102.408V101.24C201.05 101.08 201.77 101 202.207 101ZM202.175 105.192C201.727 105.192 201.386 105.309 201.151 105.544C200.916 105.779 200.799 106.109 200.799 106.536V106.712C200.799 107.107 200.89 107.416 201.071 107.64C201.252 107.864 201.482 107.976 201.759 107.976C202.047 107.976 202.34 107.853 202.639 107.608C202.948 107.352 203.231 106.995 203.487 106.536V105.304C203.082 105.229 202.644 105.192 202.175 105.192ZM208.371 98.072V109H207.011V98.072H208.371ZM211.964 98.072V109H210.604V98.072H211.964ZM219.894 101.192L216.31 111.96H214.95L215.974 109H215.462L213.238 101.192H214.726L216.406 108.024L218.486 101.192H219.894ZM226.282 101C226.73 101 227.269 101.064 227.898 101.192L227.866 102.344C227.311 102.216 226.805 102.152 226.346 102.152C225.386 102.152 224.906 102.461 224.906 103.08V103.224C224.906 103.416 224.954 103.571 225.05 103.688C225.157 103.805 225.343 103.928 225.61 104.056L227.114 104.76C228.021 105.187 228.474 105.811 228.474 106.632V106.984C228.463 107.72 228.239 108.275 227.802 108.648C227.375 109.011 226.698 109.192 225.77 109.192C225.29 109.192 224.602 109.08 223.706 108.856L223.77 107.64C224.57 107.875 225.226 107.992 225.738 107.992C226.261 107.992 226.623 107.923 226.826 107.784C227.029 107.635 227.13 107.395 227.13 107.064V106.904C227.13 106.648 227.077 106.445 226.97 106.296C226.874 106.147 226.709 106.019 226.474 105.912L224.922 105.224C224.453 105.011 224.106 104.755 223.882 104.456C223.669 104.157 223.562 103.811 223.562 103.416V103.192C223.583 102.467 223.807 101.923 224.234 101.56C224.671 101.187 225.354 101 226.282 101ZM231.511 98.072V109H230.151V98.072H231.511ZM236.129 101C237.046 101 237.713 101.208 238.129 101.624C238.556 102.029 238.769 102.68 238.769 103.576V109H237.473V107.752C236.854 108.712 236.156 109.192 235.377 109.192C234.758 109.192 234.262 108.979 233.889 108.552C233.526 108.125 233.345 107.544 233.345 106.808V106.36C233.345 105.72 233.564 105.192 234.001 104.776C234.438 104.349 235.025 104.136 235.761 104.136C236.166 104.136 236.716 104.205 237.409 104.344V103.464C237.409 103.005 237.302 102.675 237.089 102.472C236.886 102.269 236.566 102.168 236.129 102.168C235.617 102.168 234.897 102.248 233.969 102.408V101.24C234.972 101.08 235.692 101 236.129 101ZM236.097 105.192C235.649 105.192 235.308 105.309 235.073 105.544C234.838 105.779 234.721 106.109 234.721 106.536V106.712C234.721 107.107 234.812 107.416 234.993 107.64C235.174 107.864 235.404 107.976 235.681 107.976C235.969 107.976 236.262 107.853 236.561 107.608C236.87 107.352 237.153 106.995 237.409 106.536V105.304C237.004 105.229 236.566 105.192 236.097 105.192ZM244.325 101C244.997 101 245.519 101.229 245.893 101.688C246.266 102.147 246.453 102.808 246.453 103.672V106.52C246.453 107.352 246.234 108.008 245.797 108.488C245.37 108.957 244.789 109.192 244.053 109.192C243.775 109.192 243.477 109.133 243.157 109.016C242.847 108.909 242.559 108.781 242.293 108.632V111.96H240.933V101.192H242.213V102.328C242.799 101.443 243.503 101 244.325 101ZM244.053 102.216C243.743 102.216 243.429 102.333 243.109 102.568C242.799 102.792 242.527 103.101 242.293 103.496V107.416C242.517 107.597 242.762 107.741 243.029 107.848C243.306 107.944 243.557 107.992 243.781 107.992C244.655 107.992 245.093 107.437 245.093 106.328V103.864C245.093 102.765 244.746 102.216 244.053 102.216ZM257.097 101.192L253.513 111.96H252.153L253.177 109H252.665L250.441 101.192H251.929L253.609 108.024L255.689 101.192H257.097ZM260.979 101C261.928 101 262.632 101.256 263.091 101.768C263.56 102.269 263.795 102.984 263.795 103.912V106.28C263.795 107.208 263.56 107.928 263.091 108.44C262.632 108.941 261.928 109.192 260.979 109.192C260.03 109.192 259.32 108.941 258.851 108.44C258.392 107.928 258.163 107.208 258.163 106.28V103.912C258.163 102.984 258.392 102.269 258.851 101.768C259.32 101.256 260.03 101 260.979 101ZM260.979 102.136C260.52 102.136 260.163 102.28 259.907 102.568C259.651 102.856 259.523 103.267 259.523 103.8V106.392C259.523 106.925 259.651 107.336 259.907 107.624C260.163 107.912 260.52 108.056 260.979 108.056C261.438 108.056 261.795 107.912 262.051 107.624C262.307 107.336 262.435 106.925 262.435 106.392V103.784C262.435 103.251 262.307 102.845 262.051 102.568C261.795 102.28 261.438 102.136 260.979 102.136ZM271.31 109H270.03V107.88C269.742 108.307 269.422 108.632 269.07 108.856C268.718 109.08 268.345 109.192 267.95 109.192C267.299 109.192 266.787 108.968 266.414 108.52C266.051 108.061 265.87 107.395 265.87 106.52V101.192H267.23V106.28C267.23 106.845 267.315 107.261 267.486 107.528C267.667 107.795 267.913 107.928 268.222 107.928C268.51 107.928 268.809 107.816 269.118 107.592C269.438 107.357 269.715 107.037 269.95 106.632V101.192H271.31V109ZM278.673 101C279.121 101 279.659 101.064 280.289 101.192L280.257 102.344C279.702 102.216 279.195 102.152 278.737 102.152C277.777 102.152 277.297 102.461 277.297 103.08V103.224C277.297 103.416 277.345 103.571 277.441 103.688C277.547 103.805 277.734 103.928 278.001 104.056L279.505 104.76C280.411 105.187 280.865 105.811 280.865 106.632V106.984C280.854 107.72 280.63 108.275 280.193 108.648C279.766 109.011 279.089 109.192 278.161 109.192C277.681 109.192 276.993 109.08 276.097 108.856L276.161 107.64C276.961 107.875 277.617 107.992 278.129 107.992C278.651 107.992 279.014 107.923 279.217 107.784C279.419 107.635 279.521 107.395 279.521 107.064V106.904C279.521 106.648 279.467 106.445 279.361 106.296C279.265 106.147 279.099 106.019 278.865 105.912L277.312 105.224C276.843 105.011 276.497 104.755 276.273 104.456C276.059 104.157 275.953 103.811 275.953 103.416V103.192C275.974 102.467 276.198 101.923 276.625 101.56C277.062 101.187 277.745 101 278.673 101ZM284.142 101.192H286.222V102.312H284.142V106.888C284.142 107.293 284.222 107.587 284.382 107.768C284.553 107.939 284.814 108.024 285.166 108.024C285.614 108.024 286.051 107.971 286.478 107.864L286.51 109C286.041 109.128 285.614 109.192 285.23 109.192C284.377 109.192 283.753 109.005 283.358 108.632C282.974 108.248 282.782 107.629 282.782 106.776V102.312H281.662V101.192H282.782L283.038 99.112H284.142V101.192ZM293.388 109H292.108V107.88C291.82 108.307 291.5 108.632 291.148 108.856C290.796 109.08 290.423 109.192 290.028 109.192C289.377 109.192 288.865 108.968 288.492 108.52C288.129 108.061 287.948 107.395 287.948 106.52V101.192H289.308V106.28C289.308 106.845 289.393 107.261 289.564 107.528C289.745 107.795 289.991 107.928 290.3 107.928C290.588 107.928 290.887 107.816 291.196 107.592C291.516 107.357 291.793 107.037 292.028 106.632V101.192H293.388V109ZM299.028 101C299.7 101 300.222 101.229 300.596 101.688C300.969 102.147 301.156 102.808 301.156 103.672V106.52C301.156 107.352 300.937 108.008 300.5 108.488C300.073 108.957 299.492 109.192 298.756 109.192C298.478 109.192 298.18 109.133 297.86 109.016C297.55 108.909 297.262 108.781 296.996 108.632V111.96H295.636V101.192H296.916V102.328C297.502 101.443 298.206 101 299.028 101ZM298.756 102.216C298.446 102.216 298.132 102.333 297.812 102.568C297.502 102.792 297.23 103.101 296.996 103.496V107.416C297.22 107.597 297.465 107.741 297.732 107.848C298.009 107.944 298.26 107.992 298.484 107.992C299.358 107.992 299.796 107.437 299.796 106.328V103.864C299.796 102.765 299.449 102.216 298.756 102.216ZM304.589 101.192V109H303.229V101.192H304.589ZM303.901 98.04C304.189 98.04 304.408 98.104 304.557 98.232C304.717 98.36 304.797 98.5413 304.797 98.776V99.24C304.797 99.4747 304.717 99.656 304.557 99.784C304.408 99.9013 304.189 99.96 303.901 99.96C303.624 99.96 303.405 99.9013 303.245 99.784C303.096 99.656 303.021 99.4747 303.021 99.24V98.776C303.021 98.5413 303.096 98.36 303.245 98.232C303.405 98.104 303.624 98.04 303.901 98.04ZM312.199 109H310.903V107.736C310.263 108.707 309.532 109.192 308.711 109.192C308.05 109.192 307.543 108.968 307.191 108.52C306.839 108.061 306.663 107.395 306.663 106.52V103.672C306.663 102.829 306.855 102.173 307.239 101.704C307.634 101.235 308.194 101 308.919 101C309.228 101 309.554 101.08 309.895 101.24C310.236 101.389 310.551 101.576 310.839 101.8V98.072H312.199V109ZM309.223 102.216C308.839 102.216 308.54 102.355 308.327 102.632C308.124 102.899 308.023 103.309 308.023 103.864V106.344C308.023 107.432 308.359 107.976 309.031 107.976C309.351 107.976 309.666 107.853 309.975 107.608C310.295 107.352 310.583 106.995 310.839 106.536V103.016C310.615 102.781 310.348 102.589 310.039 102.44C309.74 102.291 309.468 102.216 309.223 102.216ZM315.089 107.24C315.697 107.24 316.001 107.491 316.001 107.992V108.456C316.001 108.691 315.921 108.872 315.761 109C315.611 109.128 315.387 109.192 315.089 109.192C314.801 109.192 314.577 109.128 314.417 109C314.267 108.872 314.193 108.691 314.193 108.456V107.992C314.193 107.747 314.267 107.56 314.417 107.432C314.577 107.304 314.801 107.24 315.089 107.24Z" fill="black"/>
<path d="M24 45C24 31.1929 35.1929 20 49 20H339C352.807 20 364 31.1929 364 45V68H24V45Z" fill="#30A0F5"/>
<path d="M126.271 35.992C128.063 35.992 129.383 36.44 130.231 37.336C131.079 38.232 131.503 39.504 131.503 41.152V47.128C131.503 49.176 130.743 50.608 129.223 51.424L131.983 52.144L132.031 54.04H131.575L126.871 52.264C126.759 52.28 126.567 52.288 126.295 52.288C122.791 52.288 121.039 50.568 121.039 47.128V41.152C121.039 39.504 121.463 38.232 122.311 37.336C123.159 36.44 124.479 35.992 126.271 35.992ZM126.271 37.792C125.215 37.792 124.415 38.056 123.871 38.584C123.343 39.112 123.079 39.888 123.079 40.912V47.344C123.079 48.368 123.351 49.152 123.895 49.696C124.439 50.224 125.239 50.488 126.295 50.488C128.407 50.488 129.463 49.424 129.463 47.296V40.936C129.463 39.912 129.191 39.136 128.647 38.608C128.119 38.064 127.327 37.792 126.271 37.792ZM143.028 52H141.108V50.32C140.676 50.96 140.196 51.448 139.668 51.784C139.14 52.12 138.58 52.288 137.988 52.288C137.012 52.288 136.244 51.952 135.684 51.28C135.14 50.592 134.868 49.592 134.868 48.28V40.288H136.908V47.92C136.908 48.768 137.036 49.392 137.292 49.792C137.564 50.192 137.932 50.392 138.396 50.392C138.828 50.392 139.276 50.224 139.74 49.888C140.22 49.536 140.636 49.056 140.988 48.448V40.288H143.028V52ZM150.383 40C151.807 40 152.863 40.384 153.551 41.152C154.255 41.904 154.607 42.976 154.607 44.368V47.92C154.607 49.312 154.255 50.392 153.551 51.16C152.863 51.912 151.807 52.288 150.383 52.288C148.959 52.288 147.895 51.912 147.191 51.16C146.503 50.392 146.159 49.312 146.159 47.92V44.368C146.159 42.976 146.503 41.904 147.191 41.152C147.895 40.384 148.959 40 150.383 40ZM150.383 41.704C149.695 41.704 149.159 41.92 148.775 42.352C148.391 42.784 148.199 43.4 148.199 44.2V48.088C148.199 48.888 148.391 49.504 148.775 49.936C149.159 50.368 149.695 50.584 150.383 50.584C151.071 50.584 151.607 50.368 151.991 49.936C152.375 49.504 152.567 48.888 152.567 48.088V44.176C152.567 43.376 152.375 42.768 151.991 42.352C151.607 41.92 151.071 41.704 150.383 41.704ZM160.189 40.288H163.309V41.968H160.189V48.832C160.189 49.44 160.309 49.88 160.549 50.152C160.805 50.408 161.197 50.536 161.725 50.536C162.397 50.536 163.053 50.456 163.693 50.296L163.741 52C163.037 52.192 162.397 52.288 161.821 52.288C160.541 52.288 159.605 52.008 159.013 51.448C158.437 50.872 158.149 49.944 158.149 48.664V41.968H156.469V40.288H158.149L158.533 37.168H160.189V40.288ZM169.739 40C171.083 40 172.107 40.368 172.811 41.104C173.515 41.84 173.867 42.904 173.867 44.296V46.768H167.699V48.184C167.699 49 167.891 49.592 168.275 49.96C168.675 50.312 169.299 50.488 170.147 50.488C170.979 50.488 172.019 50.36 173.267 50.104L173.315 51.88C171.827 52.152 170.763 52.288 170.123 52.288C168.539 52.288 167.395 51.944 166.691 51.256C166.003 50.568 165.659 49.504 165.659 48.064V44.296C165.659 42.904 165.995 41.84 166.667 41.104C167.355 40.368 168.379 40 169.739 40ZM169.739 41.704C169.115 41.704 168.619 41.904 168.251 42.304C167.883 42.688 167.699 43.248 167.699 43.984V45.136H171.827V44.056C171.827 43.288 171.635 42.704 171.251 42.304C170.883 41.904 170.379 41.704 169.739 41.704ZM184.93 40C186.354 40 187.41 40.384 188.098 41.152C188.802 41.904 189.154 42.976 189.154 44.368V47.92C189.154 49.312 188.802 50.392 188.098 51.16C187.41 51.912 186.354 52.288 184.93 52.288C183.506 52.288 182.442 51.912 181.738 51.16C181.05 50.392 180.706 49.312 180.706 47.92V44.368C180.706 42.976 181.05 41.904 181.738 41.152C182.442 40.384 183.506 40 184.93 40ZM184.93 41.704C184.242 41.704 183.706 41.92 183.322 42.352C182.938 42.784 182.746 43.4 182.746 44.2V48.088C182.746 48.888 182.938 49.504 183.322 49.936C183.706 50.368 184.242 50.584 184.93 50.584C185.618 50.584 186.154 50.368 186.538 49.936C186.922 49.504 187.114 48.888 187.114 48.088V44.176C187.114 43.376 186.922 42.768 186.538 42.352C186.154 41.92 185.618 41.704 184.93 41.704ZM196.586 35.32C197.114 35.32 197.618 35.376 198.098 35.488V37.12C197.618 37.04 197.122 37 196.61 37C196.114 37 195.722 37.16 195.434 37.48C195.162 37.8 195.026 38.288 195.026 38.944V40.288H197.426V41.968H195.026V52H192.986V41.968H191.306V40.288H192.986V39.064C193.002 37.816 193.314 36.88 193.922 36.256C194.53 35.632 195.418 35.32 196.586 35.32ZM206.361 40.288H209.481V41.968H206.361V48.832C206.361 49.44 206.481 49.88 206.721 50.152C206.977 50.408 207.369 50.536 207.897 50.536C208.569 50.536 209.225 50.456 209.865 50.296L209.913 52C209.209 52.192 208.569 52.288 207.993 52.288C206.713 52.288 205.777 52.008 205.185 51.448C204.609 50.872 204.321 49.944 204.321 48.664V41.968H202.641V40.288H204.321L204.705 37.168H206.361V40.288ZM214.111 41.848C214.991 40.616 216.015 40 217.183 40C218.207 40 218.991 40.352 219.535 41.056C220.095 41.744 220.375 42.728 220.375 44.008V52H218.335V44.296C218.335 42.696 217.815 41.896 216.775 41.896C216.311 41.896 215.839 42.072 215.359 42.424C214.879 42.776 214.463 43.256 214.111 43.864V52H212.071V35.608H214.111V41.848ZM227.465 40C228.809 40 229.833 40.368 230.537 41.104C231.241 41.84 231.593 42.904 231.593 44.296V46.768H225.425V48.184C225.425 49 225.617 49.592 226.001 49.96C226.401 50.312 227.025 50.488 227.873 50.488C228.705 50.488 229.745 50.36 230.993 50.104L231.041 51.88C229.553 52.152 228.489 52.288 227.849 52.288C226.265 52.288 225.121 51.944 224.417 51.256C223.729 50.568 223.385 49.504 223.385 48.064V44.296C223.385 42.904 223.721 41.84 224.393 41.104C225.081 40.368 226.105 40 227.465 40ZM227.465 41.704C226.841 41.704 226.345 41.904 225.977 42.304C225.609 42.688 225.425 43.248 225.425 43.984V45.136H229.553V44.056C229.553 43.288 229.361 42.704 228.977 42.304C228.609 41.904 228.105 41.704 227.465 41.704ZM246.736 52H244.792V50.104C243.832 51.56 242.736 52.288 241.504 52.288C240.512 52.288 239.752 51.952 239.224 51.28C238.696 50.592 238.432 49.592 238.432 48.28V44.008C238.432 42.744 238.72 41.76 239.296 41.056C239.888 40.352 240.728 40 241.816 40C242.28 40 242.768 40.12 243.28 40.36C243.792 40.584 244.264 40.864 244.696 41.2V35.608H246.736V52ZM242.272 41.824C241.696 41.824 241.248 42.032 240.928 42.448C240.624 42.848 240.472 43.464 240.472 44.296V48.016C240.472 49.648 240.976 50.464 241.984 50.464C242.464 50.464 242.936 50.28 243.4 49.912C243.88 49.528 244.312 48.992 244.696 48.304V43.024C244.36 42.672 243.96 42.384 243.496 42.16C243.048 41.936 242.64 41.824 242.272 41.824ZM253.662 40C255.038 40 256.038 40.312 256.662 40.936C257.302 41.544 257.622 42.52 257.622 43.864V52H255.678V50.128C254.75 51.568 253.702 52.288 252.534 52.288C251.606 52.288 250.862 51.968 250.302 51.328C249.758 50.688 249.486 49.816 249.486 48.712V48.04C249.486 47.08 249.814 46.288 250.47 45.664C251.126 45.024 252.006 44.704 253.11 44.704C253.718 44.704 254.542 44.808 255.582 45.016V43.696C255.582 43.008 255.422 42.512 255.102 42.208C254.798 41.904 254.318 41.752 253.662 41.752C252.894 41.752 251.814 41.872 250.422 42.112V40.36C251.926 40.12 253.006 40 253.662 40ZM253.614 46.288C252.942 46.288 252.43 46.464 252.078 46.816C251.726 47.168 251.55 47.664 251.55 48.304V48.568C251.55 49.16 251.686 49.624 251.958 49.96C252.23 50.296 252.574 50.464 252.99 50.464C253.422 50.464 253.862 50.28 254.31 49.912C254.774 49.528 255.198 48.992 255.582 48.304V46.456C254.974 46.344 254.318 46.288 253.614 46.288ZM269.412 40.288L264.036 56.44H261.996L263.532 52H262.764L259.428 40.288H261.66L264.18 50.536L267.3 40.288H269.412Z" fill="#FFFEFE"/>
<defs>
<filter id="filter0_d" x="0" y="0" width="388" height="165.6" filterUnits="userSpaceOnUse" color-interpolation-filters="sRGB">
<feFlood flood-opacity="0" result="BackgroundImageFix"/>
<feColorMatrix in="SourceAlpha" type="matrix" values="0 0 0 0 0 0 0 0 0 0 0 0 0 0 0 0 0 0 127 0"/>
<feMorphology radius="8" operator="dilate" in="SourceAlpha" result="effect1_dropShadow"/>
<feOffset dy="4"/>
<feGaussianBlur stdDeviation="8"/>
<feColorMatrix type="matrix" values="0 0 0 0 0 0 0 0 0 0 0 0 0 0 0 0 0 0 0.1 0"/>
<feBlend mode="normal" in2="BackgroundImageFix" result="effect1_dropShadow"/>
<feBlend mode="normal" in="SourceGraphic" in2="effect1_dropShadow" result="shape"/>
</filter>
</defs>
</svg>
