<svg width="388" height="230" viewBox="0 0 388 230" fill="none" xmlns="http://www.w3.org/2000/svg">
<g filter="url(#filter0_d)">
<rect x="24" y="20" width="340" height="182" rx="25" fill="white"/>
</g>
<path d="M67.5324 98.464C67.895 98.5493 68.0764 98.7733 68.0764 99.136V99.584C68.0764 99.8187 68.0017 99.9947 67.8524 100.112C67.7137 100.229 67.5057 100.288 67.2284 100.288C66.6524 100.288 66.3644 100.053 66.3644 99.584V99.104C66.3644 98.8053 66.4017 98.5387 66.4764 98.304L66.9564 96.88H67.9004L67.5324 98.464ZM69.8524 98.464C70.215 98.5493 70.3964 98.7733 70.3964 99.136V99.584C70.3964 99.8187 70.3217 99.9947 70.1724 100.112C70.0337 100.229 69.8257 100.288 69.5484 100.288C68.9724 100.288 68.6844 100.053 68.6844 99.584V99.104C68.6844 98.8053 68.7217 98.5387 68.7964 98.304L69.2764 96.88H70.2204L69.8524 98.464ZM75.4968 97.328C75.9128 97.328 76.3608 97.3707 76.8408 97.456C77.3314 97.5307 77.6194 97.5733 77.7048 97.584L77.6728 98.784C76.7341 98.6133 76.0088 98.528 75.4968 98.528C74.7714 98.528 74.2488 98.6773 73.9288 98.976C73.6088 99.2747 73.4488 99.7707 73.4488 100.464V105.04C73.4488 105.733 73.6034 106.229 73.9128 106.528C74.2328 106.816 74.7608 106.96 75.4968 106.96C76.0088 106.96 76.7341 106.875 77.6728 106.704L77.7048 107.936C77.6194 107.947 77.3314 107.989 76.8408 108.064C76.3608 108.149 75.9128 108.192 75.4968 108.192C74.2701 108.192 73.3954 107.931 72.8728 107.408C72.3501 106.885 72.0888 106.069 72.0888 104.96V100.56C72.0888 99.4507 72.3501 98.6347 72.8728 98.112C73.3954 97.5893 74.2701 97.328 75.4968 97.328ZM81.0581 101.232C81.6448 100.411 82.3275 100 83.1061 100C83.7888 100 84.3115 100.235 84.6741 100.704C85.0475 101.163 85.2341 101.819 85.2341 102.672V108H83.8741V102.864C83.8741 101.797 83.5275 101.264 82.8341 101.264C82.5248 101.264 82.2101 101.381 81.8901 101.616C81.5701 101.851 81.2928 102.171 81.0581 102.576V108H79.6981V97.072H81.0581V101.232ZM92.8413 108H91.5613V106.88C91.2733 107.307 90.9533 107.632 90.6013 107.856C90.2493 108.08 89.8759 108.192 89.4813 108.192C88.8306 108.192 88.3186 107.968 87.9453 107.52C87.5826 107.061 87.4013 106.395 87.4013 105.52V100.192H88.7613V105.28C88.7613 105.845 88.8466 106.261 89.0173 106.528C89.1986 106.795 89.4439 106.928 89.7533 106.928C90.0413 106.928 90.3399 106.816 90.6493 106.592C90.9693 106.357 91.2466 106.037 91.4813 105.632V100.192H92.8413V108ZM97.8248 100C98.3048 100 98.8488 100.069 99.4568 100.208L99.4248 101.408C98.8061 101.269 98.2728 101.2 97.8248 101.2C97.3234 101.2 96.9394 101.339 96.6728 101.616C96.4168 101.893 96.2888 102.288 96.2888 102.8V105.376C96.2888 105.909 96.4221 106.315 96.6888 106.592C96.9661 106.859 97.3448 106.992 97.8248 106.992C98.1234 106.992 98.3848 106.976 98.6088 106.944C98.8328 106.912 99.1048 106.859 99.4248 106.784L99.4568 107.984C98.8061 108.123 98.2568 108.192 97.8088 108.192C95.8888 108.192 94.9288 107.221 94.9288 105.28V102.912C94.9288 100.971 95.8941 100 97.8248 100ZM102.683 97.072V103.616L105.243 100.192H106.763L104.107 103.616L106.955 108H105.323L102.683 103.808V108H101.323V97.072H102.683ZM115.906 108L112.45 99.152V108H111.106V97.52H113.282L116.674 106.368V97.52H118.018V108H115.906ZM122.995 100C123.944 100 124.648 100.256 125.107 100.768C125.576 101.269 125.811 101.984 125.811 102.912V105.28C125.811 106.208 125.576 106.928 125.107 107.44C124.648 107.941 123.944 108.192 122.995 108.192C122.045 108.192 121.336 107.941 120.867 107.44C120.408 106.928 120.179 106.208 120.179 105.28V102.912C120.179 101.984 120.408 101.269 120.867 100.768C121.336 100.256 122.045 100 122.995 100ZM122.995 101.136C122.536 101.136 122.179 101.28 121.923 101.568C121.667 101.856 121.539 102.267 121.539 102.8V105.392C121.539 105.925 121.667 106.336 121.923 106.624C122.179 106.912 122.536 107.056 122.995 107.056C123.453 107.056 123.811 106.912 124.067 106.624C124.323 106.336 124.451 105.925 124.451 105.392V102.784C124.451 102.251 124.323 101.845 124.067 101.568C123.811 101.28 123.453 101.136 122.995 101.136ZM131.294 100C131.443 100 131.56 100.011 131.646 100.032V101.568C131.486 101.536 131.278 101.52 131.022 101.52C130.275 101.52 129.683 101.893 129.246 102.64V108H127.886V100.192H129.166V101.36C129.454 100.923 129.774 100.587 130.126 100.352C130.488 100.117 130.878 100 131.294 100ZM136.497 100C136.646 100 136.763 100.011 136.849 100.032V101.568C136.689 101.536 136.481 101.52 136.225 101.52C135.478 101.52 134.886 101.893 134.449 102.64V108H133.089V100.192H134.369V101.36C134.657 100.923 134.977 100.587 135.329 100.352C135.691 100.117 136.081 100 136.497 100ZM139.652 100.192V108H138.292V100.192H139.652ZM138.964 97.04C139.252 97.04 139.471 97.104 139.62 97.232C139.78 97.36 139.86 97.5413 139.86 97.776V98.24C139.86 98.4747 139.78 98.656 139.62 98.784C139.471 98.9013 139.252 98.96 138.964 98.96C138.687 98.96 138.468 98.9013 138.308 98.784C138.159 98.656 138.084 98.4747 138.084 98.24V97.776C138.084 97.5413 138.159 97.36 138.308 97.232C138.468 97.104 138.687 97.04 138.964 97.04ZM144.126 100C144.574 100 145.112 100.064 145.742 100.192L145.71 101.344C145.155 101.216 144.648 101.152 144.19 101.152C143.23 101.152 142.75 101.461 142.75 102.08V102.224C142.75 102.416 142.798 102.571 142.894 102.688C143 102.805 143.187 102.928 143.454 103.056L144.958 103.76C145.864 104.187 146.318 104.811 146.318 105.632V105.984C146.307 106.72 146.083 107.275 145.646 107.648C145.219 108.011 144.542 108.192 143.614 108.192C143.134 108.192 142.446 108.08 141.55 107.856L141.614 106.64C142.414 106.875 143.07 106.992 143.582 106.992C144.104 106.992 144.467 106.923 144.67 106.784C144.872 106.635 144.974 106.395 144.974 106.064V105.904C144.974 105.648 144.92 105.445 144.814 105.296C144.718 105.147 144.552 105.019 144.318 104.912L142.766 104.224C142.296 104.011 141.95 103.755 141.726 103.456C141.512 103.157 141.406 102.811 141.406 102.416V102.192C141.427 101.467 141.651 100.923 142.078 100.56C142.515 100.187 143.198 100 144.126 100ZM153.606 100C154.086 100 154.63 100.069 155.238 100.208L155.206 101.408C154.587 101.269 154.054 101.2 153.606 101.2C153.105 101.2 152.721 101.339 152.454 101.616C152.198 101.893 152.07 102.288 152.07 102.8V105.376C152.07 105.909 152.203 106.315 152.47 106.592C152.747 106.859 153.126 106.992 153.606 106.992C153.905 106.992 154.166 106.976 154.39 106.944C154.614 106.912 154.886 106.859 155.206 106.784L155.238 107.984C154.587 108.123 154.038 108.192 153.59 108.192C151.67 108.192 150.71 107.221 150.71 105.28V102.912C150.71 100.971 151.675 100 153.606 100ZM159.488 100C160.406 100 161.072 100.208 161.488 100.624C161.915 101.029 162.128 101.68 162.128 102.576V108H160.832V106.752C160.214 107.712 159.515 108.192 158.736 108.192C158.118 108.192 157.622 107.979 157.248 107.552C156.886 107.125 156.704 106.544 156.704 105.808V105.36C156.704 104.72 156.923 104.192 157.36 103.776C157.798 103.349 158.384 103.136 159.12 103.136C159.526 103.136 160.075 103.205 160.768 103.344V102.464C160.768 102.005 160.662 101.675 160.448 101.472C160.246 101.269 159.926 101.168 159.488 101.168C158.976 101.168 158.256 101.248 157.328 101.408V100.24C158.331 100.08 159.051 100 159.488 100ZM159.456 104.192C159.008 104.192 158.667 104.309 158.432 104.544C158.198 104.779 158.08 105.109 158.08 105.536V105.712C158.08 106.107 158.171 106.416 158.352 106.64C158.534 106.864 158.763 106.976 159.04 106.976C159.328 106.976 159.622 106.853 159.92 106.608C160.23 106.352 160.512 105.995 160.768 105.536V104.304C160.363 104.229 159.926 104.192 159.456 104.192ZM167.7 100C168.383 100 168.905 100.235 169.268 100.704C169.641 101.163 169.828 101.819 169.828 102.672V108H168.468V102.864C168.468 101.797 168.121 101.264 167.428 101.264C167.119 101.264 166.804 101.381 166.484 101.616C166.164 101.851 165.887 102.171 165.652 102.576V108H164.292V100.192H165.572V101.36C165.86 100.923 166.18 100.587 166.532 100.352C166.895 100.117 167.284 100 167.7 100ZM176.308 97.072V108H174.948V97.072H176.308ZM179.902 100.192V108H178.542V100.192H179.902ZM179.214 97.04C179.502 97.04 179.721 97.104 179.87 97.232C180.03 97.36 180.11 97.5413 180.11 97.776V98.24C180.11 98.4747 180.03 98.656 179.87 98.784C179.721 98.9013 179.502 98.96 179.214 98.96C178.937 98.96 178.718 98.9013 178.558 98.784C178.409 98.656 178.334 98.4747 178.334 98.24V97.776C178.334 97.5413 178.409 97.36 178.558 97.232C178.718 97.104 178.937 97.04 179.214 97.04ZM183.736 100.192H185.816V101.312H183.736V105.888C183.736 106.293 183.816 106.587 183.976 106.768C184.146 106.939 184.408 107.024 184.76 107.024C185.208 107.024 185.645 106.971 186.072 106.864L186.104 108C185.634 108.128 185.208 108.192 184.824 108.192C183.97 108.192 183.346 108.005 182.952 107.632C182.568 107.248 182.376 106.629 182.376 105.776V101.312H181.256V100.192H182.376L182.632 98.112H183.736V100.192ZM190.102 100C190.998 100 191.681 100.245 192.15 100.736C192.619 101.227 192.854 101.936 192.854 102.864V104.512H188.742V105.456C188.742 106 188.87 106.395 189.126 106.64C189.393 106.875 189.809 106.992 190.374 106.992C190.929 106.992 191.622 106.907 192.454 106.736L192.486 107.92C191.494 108.101 190.785 108.192 190.358 108.192C189.302 108.192 188.539 107.963 188.07 107.504C187.611 107.045 187.382 106.336 187.382 105.376V102.864C187.382 101.936 187.606 101.227 188.054 100.736C188.513 100.245 189.195 100 190.102 100ZM190.102 101.136C189.686 101.136 189.355 101.269 189.11 101.536C188.865 101.792 188.742 102.165 188.742 102.656V103.424H191.494V102.704C191.494 102.192 191.366 101.803 191.11 101.536C190.865 101.269 190.529 101.136 190.102 101.136ZM198.106 100C198.255 100 198.373 100.011 198.458 100.032V101.568C198.298 101.536 198.09 101.52 197.834 101.52C197.087 101.52 196.495 101.893 196.058 102.64V108H194.698V100.192H195.978V101.36C196.266 100.923 196.586 100.587 196.938 100.352C197.301 100.117 197.69 100 198.106 100ZM202.051 100C202.968 100 203.635 100.208 204.051 100.624C204.478 101.029 204.691 101.68 204.691 102.576V108H203.395V106.752C202.776 107.712 202.078 108.192 201.299 108.192C200.68 108.192 200.184 107.979 199.811 107.552C199.448 107.125 199.267 106.544 199.267 105.808V105.36C199.267 104.72 199.486 104.192 199.923 103.776C200.36 103.349 200.947 103.136 201.683 103.136C202.088 103.136 202.638 103.205 203.331 103.344V102.464C203.331 102.005 203.224 101.675 203.011 101.472C202.808 101.269 202.488 101.168 202.051 101.168C201.539 101.168 200.819 101.248 199.891 101.408V100.24C200.894 100.08 201.614 100 202.051 100ZM202.019 104.192C201.571 104.192 201.23 104.309 200.995 104.544C200.76 104.779 200.643 105.109 200.643 105.536V105.712C200.643 106.107 200.734 106.416 200.915 106.64C201.096 106.864 201.326 106.976 201.603 106.976C201.891 106.976 202.184 106.853 202.483 106.608C202.792 106.352 203.075 105.995 203.331 105.536V104.304C202.926 104.229 202.488 104.192 202.019 104.192ZM208.214 97.072V108H206.854V97.072H208.214ZM211.808 97.072V108H210.448V97.072H211.808ZM219.738 100.192L216.154 110.96H214.794L215.818 108H215.306L213.082 100.192H214.57L216.25 107.024L218.33 100.192H219.738ZM226.126 100C226.574 100 227.112 100.064 227.742 100.192L227.71 101.344C227.155 101.216 226.648 101.152 226.19 101.152C225.23 101.152 224.75 101.461 224.75 102.08V102.224C224.75 102.416 224.798 102.571 224.894 102.688C225 102.805 225.187 102.928 225.454 103.056L226.958 103.76C227.864 104.187 228.318 104.811 228.318 105.632V105.984C228.307 106.72 228.083 107.275 227.646 107.648C227.219 108.011 226.542 108.192 225.614 108.192C225.134 108.192 224.446 108.08 223.55 107.856L223.614 106.64C224.414 106.875 225.07 106.992 225.582 106.992C226.104 106.992 226.467 106.923 226.67 106.784C226.872 106.635 226.974 106.395 226.974 106.064V105.904C226.974 105.648 226.92 105.445 226.814 105.296C226.718 105.147 226.552 105.019 226.318 104.912L224.766 104.224C224.296 104.011 223.95 103.755 223.726 103.456C223.512 103.157 223.406 102.811 223.406 102.416V102.192C223.427 101.467 223.651 100.923 224.078 100.56C224.515 100.187 225.198 100 226.126 100ZM231.355 97.072V108H229.995V97.072H231.355ZM235.973 100C236.89 100 237.557 100.208 237.973 100.624C238.399 101.029 238.613 101.68 238.613 102.576V108H237.317V106.752C236.698 107.712 235.999 108.192 235.221 108.192C234.602 108.192 234.106 107.979 233.733 107.552C233.37 107.125 233.189 106.544 233.189 105.808V105.36C233.189 104.72 233.407 104.192 233.845 103.776C234.282 103.349 234.869 103.136 235.605 103.136C236.01 103.136 236.559 103.205 237.253 103.344V102.464C237.253 102.005 237.146 101.675 236.933 101.472C236.73 101.269 236.41 101.168 235.973 101.168C235.461 101.168 234.741 101.248 233.813 101.408V100.24C234.815 100.08 235.535 100 235.973 100ZM235.941 104.192C235.493 104.192 235.151 104.309 234.917 104.544C234.682 104.779 234.565 105.109 234.565 105.536V105.712C234.565 106.107 234.655 106.416 234.837 106.64C235.018 106.864 235.247 106.976 235.525 106.976C235.813 106.976 236.106 106.853 236.405 106.608C236.714 106.352 236.997 105.995 237.253 105.536V104.304C236.847 104.229 236.41 104.192 235.941 104.192ZM244.168 100C244.84 100 245.363 100.229 245.736 100.688C246.11 101.147 246.296 101.808 246.296 102.672V105.52C246.296 106.352 246.078 107.008 245.64 107.488C245.214 107.957 244.632 108.192 243.896 108.192C243.619 108.192 243.32 108.133 243 108.016C242.691 107.909 242.403 107.781 242.136 107.632V110.96H240.776V100.192H242.056V101.328C242.643 100.443 243.347 100 244.168 100ZM243.896 101.216C243.587 101.216 243.272 101.333 242.952 101.568C242.643 101.792 242.371 102.101 242.136 102.496V106.416C242.36 106.597 242.606 106.741 242.872 106.848C243.15 106.944 243.4 106.992 243.624 106.992C244.499 106.992 244.936 106.437 244.936 105.328V102.864C244.936 101.765 244.59 101.216 243.896 101.216ZM256.941 100.192L253.357 110.96H251.997L253.021 108H252.509L250.285 100.192H251.773L253.453 107.024L255.533 100.192H256.941ZM260.823 100C261.772 100 262.476 100.256 262.935 100.768C263.404 101.269 263.639 101.984 263.639 102.912V105.28C263.639 106.208 263.404 106.928 262.935 107.44C262.476 107.941 261.772 108.192 260.823 108.192C259.874 108.192 259.164 107.941 258.695 107.44C258.236 106.928 258.007 106.208 258.007 105.28V102.912C258.007 101.984 258.236 101.269 258.695 100.768C259.164 100.256 259.874 100 260.823 100ZM260.823 101.136C260.364 101.136 260.007 101.28 259.751 101.568C259.495 101.856 259.367 102.267 259.367 102.8V105.392C259.367 105.925 259.495 106.336 259.751 106.624C260.007 106.912 260.364 107.056 260.823 107.056C261.282 107.056 261.639 106.912 261.895 106.624C262.151 106.336 262.279 105.925 262.279 105.392V102.784C262.279 102.251 262.151 101.845 261.895 101.568C261.639 101.28 261.282 101.136 260.823 101.136ZM271.154 108H269.874V106.88C269.586 107.307 269.266 107.632 268.914 107.856C268.562 108.08 268.188 108.192 267.794 108.192C267.143 108.192 266.631 107.968 266.258 107.52C265.895 107.061 265.714 106.395 265.714 105.52V100.192H267.074V105.28C267.074 105.845 267.159 106.261 267.33 106.528C267.511 106.795 267.756 106.928 268.066 106.928C268.354 106.928 268.652 106.816 268.962 106.592C269.282 106.357 269.559 106.037 269.794 105.632V100.192H271.154V108ZM278.516 100C278.964 100 279.503 100.064 280.132 100.192L280.1 101.344C279.546 101.216 279.039 101.152 278.58 101.152C277.62 101.152 277.14 101.461 277.14 102.08V102.224C277.14 102.416 277.188 102.571 277.284 102.688C277.391 102.805 277.578 102.928 277.844 103.056L279.348 103.76C280.255 104.187 280.708 104.811 280.708 105.632V105.984C280.698 106.72 280.474 107.275 280.036 107.648C279.61 108.011 278.932 108.192 278.004 108.192C277.524 108.192 276.836 108.08 275.94 107.856L276.004 106.64C276.804 106.875 277.46 106.992 277.972 106.992C278.495 106.992 278.858 106.923 279.06 106.784C279.263 106.635 279.364 106.395 279.364 106.064V105.904C279.364 105.648 279.311 105.445 279.204 105.296C279.108 105.147 278.943 105.019 278.708 104.912L277.156 104.224C276.687 104.011 276.34 103.755 276.116 103.456C275.903 103.157 275.796 102.811 275.796 102.416V102.192C275.818 101.467 276.042 100.923 276.468 100.56C276.906 100.187 277.588 100 278.516 100ZM283.986 100.192H286.066V101.312H283.986V105.888C283.986 106.293 284.066 106.587 284.226 106.768C284.396 106.939 284.658 107.024 285.01 107.024C285.458 107.024 285.895 106.971 286.322 106.864L286.354 108C285.884 108.128 285.458 108.192 285.074 108.192C284.22 108.192 283.596 108.005 283.202 107.632C282.818 107.248 282.626 106.629 282.626 105.776V101.312H281.506V100.192H282.626L282.882 98.112H283.986V100.192ZM293.232 108H291.952V106.88C291.664 107.307 291.344 107.632 290.992 107.856C290.64 108.08 290.267 108.192 289.872 108.192C289.221 108.192 288.709 107.968 288.336 107.52C287.973 107.061 287.792 106.395 287.792 105.52V100.192H289.152V105.28C289.152 105.845 289.237 106.261 289.408 106.528C289.589 106.795 289.835 106.928 290.144 106.928C290.432 106.928 290.731 106.816 291.04 106.592C291.36 106.357 291.637 106.037 291.872 105.632V100.192H293.232V108ZM298.871 100C299.543 100 300.066 100.229 300.439 100.688C300.813 101.147 300.999 101.808 300.999 102.672V105.52C300.999 106.352 300.781 107.008 300.343 107.488C299.917 107.957 299.335 108.192 298.599 108.192C298.322 108.192 298.023 108.133 297.703 108.016C297.394 107.909 297.106 107.781 296.839 107.632V110.96H295.479V100.192H296.759V101.328C297.346 100.443 298.05 100 298.871 100ZM298.599 101.216C298.29 101.216 297.975 101.333 297.655 101.568C297.346 101.792 297.074 102.101 296.839 102.496V106.416C297.063 106.597 297.309 106.741 297.575 106.848C297.853 106.944 298.103 106.992 298.327 106.992C299.202 106.992 299.639 106.437 299.639 105.328V102.864C299.639 101.765 299.293 101.216 298.599 101.216ZM304.433 100.192V108H303.073V100.192H304.433ZM303.745 97.04C304.033 97.04 304.252 97.104 304.401 97.232C304.561 97.36 304.641 97.5413 304.641 97.776V98.24C304.641 98.4747 304.561 98.656 304.401 98.784C304.252 98.9013 304.033 98.96 303.745 98.96C303.468 98.96 303.249 98.9013 303.089 98.784C302.94 98.656 302.865 98.4747 302.865 98.24V97.776C302.865 97.5413 302.94 97.36 303.089 97.232C303.249 97.104 303.468 97.04 303.745 97.04ZM312.043 108H310.747V106.736C310.107 107.707 309.376 108.192 308.555 108.192C307.894 108.192 307.387 107.968 307.035 107.52C306.683 107.061 306.507 106.395 306.507 105.52V102.672C306.507 101.829 306.699 101.173 307.083 100.704C307.478 100.235 308.038 100 308.763 100C309.072 100 309.398 100.08 309.739 100.24C310.08 100.389 310.395 100.576 310.683 100.8V97.072H312.043V108ZM309.067 101.216C308.683 101.216 308.384 101.355 308.171 101.632C307.968 101.899 307.867 102.309 307.867 102.864V105.344C307.867 106.432 308.203 106.976 308.875 106.976C309.195 106.976 309.51 106.853 309.819 106.608C310.139 106.352 310.427 105.995 310.683 105.536V102.016C310.459 101.781 310.192 101.589 309.883 101.44C309.584 101.291 309.312 101.216 309.067 101.216ZM314.932 106.24C315.54 106.24 315.844 106.491 315.844 106.992V107.456C315.844 107.691 315.764 107.872 315.604 108C315.455 108.128 315.231 108.192 314.932 108.192C314.644 108.192 314.42 108.128 314.26 108C314.111 107.872 314.036 107.691 314.036 107.456V106.992C314.036 106.747 314.111 106.56 314.26 106.432C314.42 106.304 314.644 106.24 314.932 106.24ZM318.447 96.88C319.023 96.88 319.311 97.1147 319.311 97.584V98.064C319.311 98.3627 319.273 98.6293 319.199 98.864L318.719 100.288H317.775L318.143 98.704C317.78 98.6187 317.599 98.3947 317.599 98.032V97.584C317.599 97.3493 317.668 97.1733 317.807 97.056C317.956 96.9387 318.169 96.88 318.447 96.88ZM320.767 96.88C321.343 96.88 321.631 97.1147 321.631 97.584V98.064C321.631 98.3627 321.593 98.6293 321.519 98.864L321.039 100.288H320.095L320.463 98.704C320.1 98.6187 319.919 98.3947 319.919 98.032V97.584C319.919 97.3493 319.988 97.1733 320.127 97.056C320.276 96.9387 320.489 96.88 320.767 96.88Z" fill="black"/>
<path d="M158.14 144.752L157.98 145.792H154.46L154.62 144.752H158.14ZM169.681 150H168.225C168.161 149.499 168.044 148.688 167.873 147.568H164.049C163.686 148.496 163.345 149.307 163.025 150H161.585L166.065 139.52H167.745L169.681 150ZM166.737 140.784C165.969 142.821 165.244 144.677 164.561 146.352H167.681C167.404 144.581 167.089 142.725 166.737 140.784ZM175.623 142C176.156 142 176.561 142.155 176.839 142.464C177.116 142.773 177.255 143.264 177.255 143.936C177.255 144.288 177.228 144.624 177.175 144.944L176.407 150H175.047L175.847 144.912C175.889 144.656 175.911 144.411 175.911 144.176C175.911 143.845 175.852 143.611 175.735 143.472C175.628 143.333 175.468 143.264 175.255 143.264C174.881 143.264 174.497 143.52 174.103 144.032C173.708 144.533 173.351 145.259 173.031 146.208C172.711 147.147 172.465 148.251 172.295 149.52L172.231 150H170.871L171.959 142.192H173.239L173.063 143.456L172.343 146.16L172.391 146.192L172.439 146.16C172.812 144.805 173.276 143.776 173.831 143.072C174.385 142.357 174.983 142 175.623 142ZM184.508 147.184C184.38 148.155 184.055 148.901 183.532 149.424C183.01 149.936 182.311 150.192 181.436 150.192C180.583 150.192 179.927 149.984 179.468 149.568C179.02 149.152 178.796 148.571 178.796 147.824C178.796 147.643 178.812 147.451 178.844 147.248L179.164 144.944C179.292 143.995 179.623 143.269 180.156 142.768C180.69 142.256 181.388 142 182.252 142C183.095 142 183.74 142.213 184.188 142.64C184.636 143.056 184.86 143.632 184.86 144.368C184.86 144.549 184.844 144.747 184.812 144.96L184.508 147.184ZM183.468 144.848C183.49 144.677 183.5 144.555 183.5 144.48C183.5 144.053 183.383 143.723 183.148 143.488C182.914 143.253 182.594 143.136 182.188 143.136C181.25 143.136 180.706 143.68 180.556 144.768L180.188 147.36C180.167 147.531 180.156 147.648 180.156 147.712C180.156 148.128 180.274 148.459 180.508 148.704C180.754 148.939 181.079 149.056 181.484 149.056C182.423 149.056 182.962 148.512 183.1 147.424L183.468 144.848ZM190.935 142C191.468 142 191.874 142.155 192.151 142.464C192.428 142.773 192.567 143.264 192.567 143.936C192.567 144.288 192.54 144.624 192.487 144.944L191.719 150H190.359L191.159 144.912C191.202 144.656 191.223 144.411 191.223 144.176C191.223 143.845 191.164 143.611 191.047 143.472C190.94 143.333 190.78 143.264 190.567 143.264C190.194 143.264 189.81 143.52 189.415 144.032C189.02 144.533 188.663 145.259 188.343 146.208C188.023 147.147 187.778 148.251 187.607 149.52L187.543 150H186.183L187.271 142.192H188.551L188.375 143.456L187.655 146.16L187.703 146.192L187.751 146.16C188.124 144.805 188.588 143.776 189.143 143.072C189.698 142.357 190.295 142 190.935 142ZM199.405 150.576C199.277 151.493 198.978 152.149 198.509 152.544C198.05 152.949 197.362 153.152 196.445 153.152C196.114 153.152 195.735 153.12 195.309 153.056C194.893 152.992 194.509 152.907 194.157 152.8L194.317 151.6C194.679 151.717 195.053 151.808 195.437 151.872C195.831 151.947 196.183 151.984 196.493 151.984C196.983 151.984 197.346 151.877 197.581 151.664C197.815 151.461 197.965 151.136 198.029 150.688L198.205 149.552L199.005 146.96L198.973 146.928L198.925 146.944C198.199 149.109 197.218 150.192 195.981 150.192C195.437 150.192 195.005 150.016 194.685 149.664C194.375 149.301 194.221 148.779 194.221 148.096C194.221 147.968 194.242 147.723 194.285 147.36L195.037 142.192H196.397L195.661 147.2C195.618 147.456 195.597 147.707 195.597 147.952C195.597 148.325 195.661 148.592 195.789 148.752C195.917 148.901 196.109 148.976 196.365 148.976C197.047 148.976 197.597 148.528 198.013 147.632C198.429 146.736 198.706 145.787 198.845 144.784L199.213 142.192H200.589L199.405 150.576ZM210.498 142C211.031 142 211.437 142.155 211.714 142.464C211.991 142.773 212.13 143.264 212.13 143.936C212.13 144.288 212.103 144.624 212.05 144.944L211.282 150H209.922L210.706 144.992C210.759 144.597 210.786 144.315 210.786 144.144C210.786 143.813 210.733 143.584 210.626 143.456C210.519 143.328 210.359 143.264 210.146 143.264C209.783 143.264 209.41 143.515 209.026 144.016C208.653 144.517 208.311 145.232 208.002 146.16C207.693 147.077 207.453 148.128 207.282 149.312L207.186 150H205.826L206.61 144.992C206.663 144.597 206.69 144.315 206.69 144.144C206.69 143.813 206.637 143.584 206.53 143.456C206.423 143.328 206.263 143.264 206.05 143.264C205.687 143.264 205.314 143.515 204.93 144.016C204.557 144.517 204.215 145.232 203.906 146.16C203.597 147.077 203.357 148.128 203.186 149.312L203.09 150H201.73L202.818 142.192H204.098L203.922 143.456L203.202 146.16L203.25 146.192L203.298 146.16C203.671 144.805 204.13 143.776 204.674 143.072C205.218 142.357 205.794 142 206.402 142C207.437 142 207.97 142.576 208.002 143.728L207.298 146.16L207.346 146.192L207.394 146.16C207.767 144.805 208.226 143.776 208.77 143.072C209.314 142.357 209.89 142 210.498 142ZM219.383 147.184C219.255 148.155 218.93 148.901 218.407 149.424C217.885 149.936 217.186 150.192 216.311 150.192C215.458 150.192 214.802 149.984 214.343 149.568C213.895 149.152 213.671 148.571 213.671 147.824C213.671 147.643 213.687 147.451 213.719 147.248L214.039 144.944C214.167 143.995 214.498 143.269 215.031 142.768C215.565 142.256 216.263 142 217.127 142C217.97 142 218.615 142.213 219.063 142.64C219.511 143.056 219.735 143.632 219.735 144.368C219.735 144.549 219.719 144.747 219.687 144.96L219.383 147.184ZM218.343 144.848C218.365 144.677 218.375 144.555 218.375 144.48C218.375 144.053 218.258 143.723 218.023 143.488C217.789 143.253 217.469 143.136 217.063 143.136C216.125 143.136 215.581 143.68 215.431 144.768L215.063 147.36C215.042 147.531 215.031 147.648 215.031 147.712C215.031 148.128 215.149 148.459 215.383 148.704C215.629 148.939 215.954 149.056 216.359 149.056C217.298 149.056 217.837 148.512 217.975 147.424L218.343 144.848ZM226.594 150H225.314L225.378 149.552L226.114 146.96L226.082 146.928L226.034 146.944C225.309 149.109 224.327 150.192 223.09 150.192C222.546 150.192 222.114 150.016 221.794 149.664C221.485 149.301 221.33 148.779 221.33 148.096C221.33 147.968 221.351 147.723 221.394 147.36L222.146 142.192H223.506L222.77 147.2C222.727 147.456 222.706 147.707 222.706 147.952C222.706 148.325 222.77 148.592 222.898 148.752C223.026 148.901 223.218 148.976 223.474 148.976C224.157 148.976 224.706 148.528 225.122 147.632C225.538 146.736 225.815 145.787 225.954 144.784L226.322 142.192H227.698L226.594 150ZM231.815 142C232.071 142 232.375 142.032 232.727 142.096C233.079 142.149 233.426 142.224 233.767 142.32L233.575 143.552C233.01 143.339 232.578 143.2 232.279 143.136L231.703 143.104C230.989 143.104 230.589 143.376 230.503 143.92L230.487 144.016C230.477 144.059 230.471 144.117 230.471 144.192C230.471 144.395 230.525 144.576 230.631 144.736C230.749 144.896 230.914 145.024 231.127 145.12L232.439 145.728C232.845 145.909 233.154 146.165 233.367 146.496C233.591 146.827 233.703 147.2 233.703 147.616C233.703 147.733 233.698 147.824 233.687 147.888L233.655 148.144C233.581 148.763 233.319 149.259 232.871 149.632C232.434 150.005 231.837 150.192 231.079 150.192C230.706 150.192 230.295 150.133 229.847 150.016C229.41 149.909 229.021 149.765 228.679 149.584L228.887 148.352C229.101 148.469 229.351 148.592 229.639 148.72C229.938 148.837 230.199 148.928 230.423 148.992C230.679 149.024 230.887 149.04 231.047 149.04C231.805 149.04 232.237 148.699 232.343 148.016L232.359 147.92C232.37 147.877 232.375 147.819 232.375 147.744C232.375 147.552 232.317 147.376 232.199 147.216C232.093 147.045 231.943 146.912 231.751 146.816L230.471 146.224C230.034 146.021 229.703 145.76 229.479 145.44C229.266 145.12 229.159 144.757 229.159 144.352C229.159 144.171 229.17 144.032 229.191 143.936L229.239 143.68C229.442 142.56 230.301 142 231.815 142Z" fill="black"/>
<path d="M24 45C24 31.1929 35.1929 20 49 20H339C352.807 20 364 31.1929 364 45V68H24V45Z" fill="#30A0F5"/>
<path d="M126.271 35.992C128.063 35.992 129.383 36.44 130.231 37.336C131.079 38.232 131.503 39.504 131.503 41.152V47.128C131.503 49.176 130.743 50.608 129.223 51.424L131.983 52.144L132.031 54.04H131.575L126.871 52.264C126.759 52.28 126.567 52.288 126.295 52.288C122.791 52.288 121.039 50.568 121.039 47.128V41.152C121.039 39.504 121.463 38.232 122.311 37.336C123.159 36.44 124.479 35.992 126.271 35.992ZM126.271 37.792C125.215 37.792 124.415 38.056 123.871 38.584C123.343 39.112 123.079 39.888 123.079 40.912V47.344C123.079 48.368 123.351 49.152 123.895 49.696C124.439 50.224 125.239 50.488 126.295 50.488C128.407 50.488 129.463 49.424 129.463 47.296V40.936C129.463 39.912 129.191 39.136 128.647 38.608C128.119 38.064 127.327 37.792 126.271 37.792ZM143.028 52H141.108V50.32C140.676 50.96 140.196 51.448 139.668 51.784C139.14 52.12 138.58 52.288 137.988 52.288C137.012 52.288 136.244 51.952 135.684 51.28C135.14 50.592 134.868 49.592 134.868 48.28V40.288H136.908V47.92C136.908 48.768 137.036 49.392 137.292 49.792C137.564 50.192 137.932 50.392 138.396 50.392C138.828 50.392 139.276 50.224 139.74 49.888C140.22 49.536 140.636 49.056 140.988 48.448V40.288H143.028V52ZM150.383 40C151.807 40 152.863 40.384 153.551 41.152C154.255 41.904 154.607 42.976 154.607 44.368V47.92C154.607 49.312 154.255 50.392 153.551 51.16C152.863 51.912 151.807 52.288 150.383 52.288C148.959 52.288 147.895 51.912 147.191 51.16C146.503 50.392 146.159 49.312 146.159 47.92V44.368C146.159 42.976 146.503 41.904 147.191 41.152C147.895 40.384 148.959 40 150.383 40ZM150.383 41.704C149.695 41.704 149.159 41.92 148.775 42.352C148.391 42.784 148.199 43.4 148.199 44.2V48.088C148.199 48.888 148.391 49.504 148.775 49.936C149.159 50.368 149.695 50.584 150.383 50.584C151.071 50.584 151.607 50.368 151.991 49.936C152.375 49.504 152.567 48.888 152.567 48.088V44.176C152.567 43.376 152.375 42.768 151.991 42.352C151.607 41.92 151.071 41.704 150.383 41.704ZM160.189 40.288H163.309V41.968H160.189V48.832C160.189 49.44 160.309 49.88 160.549 50.152C160.805 50.408 161.197 50.536 161.725 50.536C162.397 50.536 163.053 50.456 163.693 50.296L163.741 52C163.037 52.192 162.397 52.288 161.821 52.288C160.541 52.288 159.605 52.008 159.013 51.448C158.437 50.872 158.149 49.944 158.149 48.664V41.968H156.469V40.288H158.149L158.533 37.168H160.189V40.288ZM169.739 40C171.083 40 172.107 40.368 172.811 41.104C173.515 41.84 173.867 42.904 173.867 44.296V46.768H167.699V48.184C167.699 49 167.891 49.592 168.275 49.96C168.675 50.312 169.299 50.488 170.147 50.488C170.979 50.488 172.019 50.36 173.267 50.104L173.315 51.88C171.827 52.152 170.763 52.288 170.123 52.288C168.539 52.288 167.395 51.944 166.691 51.256C166.003 50.568 165.659 49.504 165.659 48.064V44.296C165.659 42.904 165.995 41.84 166.667 41.104C167.355 40.368 168.379 40 169.739 40ZM169.739 41.704C169.115 41.704 168.619 41.904 168.251 42.304C167.883 42.688 167.699 43.248 167.699 43.984V45.136H171.827V44.056C171.827 43.288 171.635 42.704 171.251 42.304C170.883 41.904 170.379 41.704 169.739 41.704ZM184.93 40C186.354 40 187.41 40.384 188.098 41.152C188.802 41.904 189.154 42.976 189.154 44.368V47.92C189.154 49.312 188.802 50.392 188.098 51.16C187.41 51.912 186.354 52.288 184.93 52.288C183.506 52.288 182.442 51.912 181.738 51.16C181.05 50.392 180.706 49.312 180.706 47.92V44.368C180.706 42.976 181.05 41.904 181.738 41.152C182.442 40.384 183.506 40 184.93 40ZM184.93 41.704C184.242 41.704 183.706 41.92 183.322 42.352C182.938 42.784 182.746 43.4 182.746 44.2V48.088C182.746 48.888 182.938 49.504 183.322 49.936C183.706 50.368 184.242 50.584 184.93 50.584C185.618 50.584 186.154 50.368 186.538 49.936C186.922 49.504 187.114 48.888 187.114 48.088V44.176C187.114 43.376 186.922 42.768 186.538 42.352C186.154 41.92 185.618 41.704 184.93 41.704ZM196.586 35.32C197.114 35.32 197.618 35.376 198.098 35.488V37.12C197.618 37.04 197.122 37 196.61 37C196.114 37 195.722 37.16 195.434 37.48C195.162 37.8 195.026 38.288 195.026 38.944V40.288H197.426V41.968H195.026V52H192.986V41.968H191.306V40.288H192.986V39.064C193.002 37.816 193.314 36.88 193.922 36.256C194.53 35.632 195.418 35.32 196.586 35.32ZM206.361 40.288H209.481V41.968H206.361V48.832C206.361 49.44 206.481 49.88 206.721 50.152C206.977 50.408 207.369 50.536 207.897 50.536C208.569 50.536 209.225 50.456 209.865 50.296L209.913 52C209.209 52.192 208.569 52.288 207.993 52.288C206.713 52.288 205.777 52.008 205.185 51.448C204.609 50.872 204.321 49.944 204.321 48.664V41.968H202.641V40.288H204.321L204.705 37.168H206.361V40.288ZM214.111 41.848C214.991 40.616 216.015 40 217.183 40C218.207 40 218.991 40.352 219.535 41.056C220.095 41.744 220.375 42.728 220.375 44.008V52H218.335V44.296C218.335 42.696 217.815 41.896 216.775 41.896C216.311 41.896 215.839 42.072 215.359 42.424C214.879 42.776 214.463 43.256 214.111 43.864V52H212.071V35.608H214.111V41.848ZM227.465 40C228.809 40 229.833 40.368 230.537 41.104C231.241 41.84 231.593 42.904 231.593 44.296V46.768H225.425V48.184C225.425 49 225.617 49.592 226.001 49.96C226.401 50.312 227.025 50.488 227.873 50.488C228.705 50.488 229.745 50.36 230.993 50.104L231.041 51.88C229.553 52.152 228.489 52.288 227.849 52.288C226.265 52.288 225.121 51.944 224.417 51.256C223.729 50.568 223.385 49.504 223.385 48.064V44.296C223.385 42.904 223.721 41.84 224.393 41.104C225.081 40.368 226.105 40 227.465 40ZM227.465 41.704C226.841 41.704 226.345 41.904 225.977 42.304C225.609 42.688 225.425 43.248 225.425 43.984V45.136H229.553V44.056C229.553 43.288 229.361 42.704 228.977 42.304C228.609 41.904 228.105 41.704 227.465 41.704ZM246.736 52H244.792V50.104C243.832 51.56 242.736 52.288 241.504 52.288C240.512 52.288 239.752 51.952 239.224 51.28C238.696 50.592 238.432 49.592 238.432 48.28V44.008C238.432 42.744 238.72 41.76 239.296 41.056C239.888 40.352 240.728 40 241.816 40C242.28 40 242.768 40.12 243.28 40.36C243.792 40.584 244.264 40.864 244.696 41.2V35.608H246.736V52ZM242.272 41.824C241.696 41.824 241.248 42.032 240.928 42.448C240.624 42.848 240.472 43.464 240.472 44.296V48.016C240.472 49.648 240.976 50.464 241.984 50.464C242.464 50.464 242.936 50.28 243.4 49.912C243.88 49.528 244.312 48.992 244.696 48.304V43.024C244.36 42.672 243.96 42.384 243.496 42.16C243.048 41.936 242.64 41.824 242.272 41.824ZM253.662 40C255.038 40 256.038 40.312 256.662 40.936C257.302 41.544 257.622 42.52 257.622 43.864V52H255.678V50.128C254.75 51.568 253.702 52.288 252.534 52.288C251.606 52.288 250.862 51.968 250.302 51.328C249.758 50.688 249.486 49.816 249.486 48.712V48.04C249.486 47.08 249.814 46.288 250.47 45.664C251.126 45.024 252.006 44.704 253.11 44.704C253.718 44.704 254.542 44.808 255.582 45.016V43.696C255.582 43.008 255.422 42.512 255.102 42.208C254.798 41.904 254.318 41.752 253.662 41.752C252.894 41.752 251.814 41.872 250.422 42.112V40.36C251.926 40.12 253.006 40 253.662 40ZM253.614 46.288C252.942 46.288 252.43 46.464 252.078 46.816C251.726 47.168 251.55 47.664 251.55 48.304V48.568C251.55 49.16 251.686 49.624 251.958 49.96C252.23 50.296 252.574 50.464 252.99 50.464C253.422 50.464 253.862 50.28 254.31 49.912C254.774 49.528 255.198 48.992 255.582 48.304V46.456C254.974 46.344 254.318 46.288 253.614 46.288ZM269.412 40.288L264.036 56.44H261.996L263.532 52H262.764L259.428 40.288H261.66L264.18 50.536L267.3 40.288H269.412Z" fill="#FFFEFE"/>
<g filter="url(#filter1_d)">
<circle cx="334" cy="173" r="20" fill="#30A0F5"/>
</g>
<path fill-rule="evenodd" clip-rule="evenodd" d="M340.656 181.897L342.873 179.68L342.092 176.843L342.433 176.03L345 174.582V171.446L342.44 169.992L342.105 169.181L342.896 166.342L340.677 164.127L337.84 164.907L337.03 164.568L335.581 162H332.445L330.991 164.56L330.18 164.894L327.342 164.103L325.127 166.318L325.907 169.156L325.568 169.966L323 171.415V174.55L325.558 176.008L325.893 176.819L325.102 179.657L327.318 181.873L330.156 181.093L330.966 181.432L332.415 183.999H335.55L337.007 181.441L337.818 181.106L340.656 181.897ZM340.853 174.626L339.981 176.708L340.636 179.089L340.068 179.657L337.692 178.995L335.609 179.854L334.387 181.999H333.583L332.371 179.853L330.292 178.981L327.909 179.636L327.342 179.069L328.004 176.693L327.145 174.61L325 173.388V172.583L327.147 171.372L328.019 169.292L327.364 166.909L327.93 166.343L330.306 167.006L332.39 166.147L333.609 164H334.413L335.624 166.147L337.704 167.019L340.087 166.364L340.656 166.932L339.994 169.307L340.853 171.391L343 172.61V173.414L340.853 174.626ZM334 177C331.791 177 330 175.209 330 173C330 170.791 331.791 169 334 169C336.209 169 338 170.791 338 173C338 175.209 336.209 177 334 177ZM336 173C336 174.105 335.105 175 334 175C332.895 175 332 174.105 332 173C332 171.895 332.895 171 334 171C335.105 171 336 171.895 336 173Z" fill="white"/>
<defs>
<filter id="filter0_d" x="0" y="0" width="388" height="230" filterUnits="userSpaceOnUse" color-interpolation-filters="sRGB">
<feFlood flood-opacity="0" result="BackgroundImageFix"/>
<feColorMatrix in="SourceAlpha" type="matrix" values="0 0 0 0 0 0 0 0 0 0 0 0 0 0 0 0 0 0 127 0"/>
<feMorphology radius="8" operator="dilate" in="SourceAlpha" result="effect1_dropShadow"/>
<feOffset dy="4"/>
<feGaussianBlur stdDeviation="8"/>
<feColorMatrix type="matrix" values="0 0 0 0 0 0 0 0 0 0 0 0 0 0 0 0 0 0 0.3 0"/>
<feBlend mode="normal" in2="BackgroundImageFix" result="effect1_dropShadow"/>
<feBlend mode="normal" in="SourceGraphic" in2="effect1_dropShadow" result="shape"/>
</filter>
<filter id="filter1_d" x="310" y="153" width="48" height="48" filterUnits="userSpaceOnUse" color-interpolation-filters="sRGB">
<feFlood flood-opacity="0" result="BackgroundImageFix"/>
<feColorMatrix in="SourceAlpha" type="matrix" values="0 0 0 0 0 0 0 0 0 0 0 0 0 0 0 0 0 0 127 0"/>
<feOffset dy="4"/>
<feGaussianBlur stdDeviation="2"/>
<feColorMatrix type="matrix" values="0 0 0 0 0 0 0 0 0 0 0 0 0 0 0 0 0 0 0.25 0"/>
<feBlend mode="normal" in2="BackgroundImageFix" result="effect1_dropShadow"/>
<feBlend mode="normal" in="SourceGraphic" in2="effect1_dropShadow" result="shape"/>
</filter>
</defs>
</svg>
